<?xml version="1.0" encoding="utf-8" standalone="no"?>
<!DOCTYPE svg PUBLIC "-//W3C//DTD SVG 1.1//EN"
  "http://www.w3.org/Graphics/SVG/1.1/DTD/svg11.dtd">
<!-- Created with matplotlib (http://matplotlib.org/) -->
<svg height="345.6pt" version="1.1" viewBox="0 0 460.8 345.6" width="460.8pt" xmlns="http://www.w3.org/2000/svg" xmlns:xlink="http://www.w3.org/1999/xlink">
 <defs>
  <style type="text/css">
*{stroke-linecap:butt;stroke-linejoin:round;}
  </style>
 </defs>
 <g id="figure_1">
  <g id="patch_1">
   <path d="M 0 345.6 
L 460.8 345.6 
L 460.8 0 
L 0 0 
z
" style="fill:#ffffff;"/>
  </g>
  <g id="axes_1">
   <g id="patch_2">
    <path d="M 57.6 307.584 
L 414.72 307.584 
L 414.72 41.472 
L 57.6 41.472 
z
" style="fill:#ffffff;"/>
   </g>
   <g id="matplotlib.axis_1">
    <g id="xtick_1">
     <g id="line2d_1">
      <path clip-path="url(#pf340f8b5b5)" d="M 78.897628 307.584 
L 78.897628 41.472 
" style="fill:none;stroke:#b0b0b0;stroke-linecap:square;stroke-width:0.8;"/>
     </g>
     <g id="line2d_2">
      <defs>
       <path d="M 0 0 
L 0 3.5 
" id="m62dc06ea89" style="stroke:#000000;stroke-width:0.8;"/>
      </defs>
      <g>
       <use style="stroke:#000000;stroke-width:0.8;" x="78.897628" xlink:href="#m62dc06ea89" y="307.584"/>
      </g>
     </g>
     <g id="text_1">
      <!-- −12 -->
      <defs>
       <path d="M 10.59375 35.5 
L 73.1875 35.5 
L 73.1875 27.203125 
L 10.59375 27.203125 
z
" id="DejaVuSans-2212"/>
       <path d="M 12.40625 8.296875 
L 28.515625 8.296875 
L 28.515625 63.921875 
L 10.984375 60.40625 
L 10.984375 69.390625 
L 28.421875 72.90625 
L 38.28125 72.90625 
L 38.28125 8.296875 
L 54.390625 8.296875 
L 54.390625 0 
L 12.40625 0 
z
" id="DejaVuSans-31"/>
       <path d="M 19.1875 8.296875 
L 53.609375 8.296875 
L 53.609375 0 
L 7.328125 0 
L 7.328125 8.296875 
Q 12.9375 14.109375 22.625 23.890625 
Q 32.328125 33.6875 34.8125 36.53125 
Q 39.546875 41.84375 41.421875 45.53125 
Q 43.3125 49.21875 43.3125 52.78125 
Q 43.3125 58.59375 39.234375 62.25 
Q 35.15625 65.921875 28.609375 65.921875 
Q 23.96875 65.921875 18.8125 64.3125 
Q 13.671875 62.703125 7.8125 59.421875 
L 7.8125 69.390625 
Q 13.765625 71.78125 18.9375 73 
Q 24.125 74.21875 28.421875 74.21875 
Q 39.75 74.21875 46.484375 68.546875 
Q 53.21875 62.890625 53.21875 53.421875 
Q 53.21875 48.921875 51.53125 44.890625 
Q 49.859375 40.875 45.40625 35.40625 
Q 44.1875 33.984375 37.640625 27.21875 
Q 31.109375 20.453125 19.1875 8.296875 
z
" id="DejaVuSans-32"/>
      </defs>
      <g transform="translate(68.345285 322.182437)scale(0.1 -0.1)">
       <use xlink:href="#DejaVuSans-2212"/>
       <use x="83.789062" xlink:href="#DejaVuSans-31"/>
       <use x="147.412109" xlink:href="#DejaVuSans-32"/>
      </g>
     </g>
    </g>
    <g id="xtick_2">
     <g id="line2d_3">
      <path clip-path="url(#pf340f8b5b5)" d="M 131.905489 307.584 
L 131.905489 41.472 
" style="fill:none;stroke:#b0b0b0;stroke-linecap:square;stroke-width:0.8;"/>
     </g>
     <g id="line2d_4">
      <g>
       <use style="stroke:#000000;stroke-width:0.8;" x="131.905489" xlink:href="#m62dc06ea89" y="307.584"/>
      </g>
     </g>
     <g id="text_2">
      <!-- −10 -->
      <defs>
       <path d="M 31.78125 66.40625 
Q 24.171875 66.40625 20.328125 58.90625 
Q 16.5 51.421875 16.5 36.375 
Q 16.5 21.390625 20.328125 13.890625 
Q 24.171875 6.390625 31.78125 6.390625 
Q 39.453125 6.390625 43.28125 13.890625 
Q 47.125 21.390625 47.125 36.375 
Q 47.125 51.421875 43.28125 58.90625 
Q 39.453125 66.40625 31.78125 66.40625 
z
M 31.78125 74.21875 
Q 44.046875 74.21875 50.515625 64.515625 
Q 56.984375 54.828125 56.984375 36.375 
Q 56.984375 17.96875 50.515625 8.265625 
Q 44.046875 -1.421875 31.78125 -1.421875 
Q 19.53125 -1.421875 13.0625 8.265625 
Q 6.59375 17.96875 6.59375 36.375 
Q 6.59375 54.828125 13.0625 64.515625 
Q 19.53125 74.21875 31.78125 74.21875 
z
" id="DejaVuSans-30"/>
      </defs>
      <g transform="translate(121.353146 322.182437)scale(0.1 -0.1)">
       <use xlink:href="#DejaVuSans-2212"/>
       <use x="83.789062" xlink:href="#DejaVuSans-31"/>
       <use x="147.412109" xlink:href="#DejaVuSans-30"/>
      </g>
     </g>
    </g>
    <g id="xtick_3">
     <g id="line2d_5">
      <path clip-path="url(#pf340f8b5b5)" d="M 184.91335 307.584 
L 184.91335 41.472 
" style="fill:none;stroke:#b0b0b0;stroke-linecap:square;stroke-width:0.8;"/>
     </g>
     <g id="line2d_6">
      <g>
       <use style="stroke:#000000;stroke-width:0.8;" x="184.91335" xlink:href="#m62dc06ea89" y="307.584"/>
      </g>
     </g>
     <g id="text_3">
      <!-- −8 -->
      <defs>
       <path d="M 31.78125 34.625 
Q 24.75 34.625 20.71875 30.859375 
Q 16.703125 27.09375 16.703125 20.515625 
Q 16.703125 13.921875 20.71875 10.15625 
Q 24.75 6.390625 31.78125 6.390625 
Q 38.8125 6.390625 42.859375 10.171875 
Q 46.921875 13.96875 46.921875 20.515625 
Q 46.921875 27.09375 42.890625 30.859375 
Q 38.875 34.625 31.78125 34.625 
z
M 21.921875 38.8125 
Q 15.578125 40.375 12.03125 44.71875 
Q 8.5 49.078125 8.5 55.328125 
Q 8.5 64.0625 14.71875 69.140625 
Q 20.953125 74.21875 31.78125 74.21875 
Q 42.671875 74.21875 48.875 69.140625 
Q 55.078125 64.0625 55.078125 55.328125 
Q 55.078125 49.078125 51.53125 44.71875 
Q 48 40.375 41.703125 38.8125 
Q 48.828125 37.15625 52.796875 32.3125 
Q 56.78125 27.484375 56.78125 20.515625 
Q 56.78125 9.90625 50.3125 4.234375 
Q 43.84375 -1.421875 31.78125 -1.421875 
Q 19.734375 -1.421875 13.25 4.234375 
Q 6.78125 9.90625 6.78125 20.515625 
Q 6.78125 27.484375 10.78125 32.3125 
Q 14.796875 37.15625 21.921875 38.8125 
z
M 18.3125 54.390625 
Q 18.3125 48.734375 21.84375 45.5625 
Q 25.390625 42.390625 31.78125 42.390625 
Q 38.140625 42.390625 41.71875 45.5625 
Q 45.3125 48.734375 45.3125 54.390625 
Q 45.3125 60.0625 41.71875 63.234375 
Q 38.140625 66.40625 31.78125 66.40625 
Q 25.390625 66.40625 21.84375 63.234375 
Q 18.3125 60.0625 18.3125 54.390625 
z
" id="DejaVuSans-38"/>
      </defs>
      <g transform="translate(177.542257 322.182437)scale(0.1 -0.1)">
       <use xlink:href="#DejaVuSans-2212"/>
       <use x="83.789062" xlink:href="#DejaVuSans-38"/>
      </g>
     </g>
    </g>
    <g id="xtick_4">
     <g id="line2d_7">
      <path clip-path="url(#pf340f8b5b5)" d="M 237.921211 307.584 
L 237.921211 41.472 
" style="fill:none;stroke:#b0b0b0;stroke-linecap:square;stroke-width:0.8;"/>
     </g>
     <g id="line2d_8">
      <g>
       <use style="stroke:#000000;stroke-width:0.8;" x="237.921211" xlink:href="#m62dc06ea89" y="307.584"/>
      </g>
     </g>
     <g id="text_4">
      <!-- −6 -->
      <defs>
       <path d="M 33.015625 40.375 
Q 26.375 40.375 22.484375 35.828125 
Q 18.609375 31.296875 18.609375 23.390625 
Q 18.609375 15.53125 22.484375 10.953125 
Q 26.375 6.390625 33.015625 6.390625 
Q 39.65625 6.390625 43.53125 10.953125 
Q 47.40625 15.53125 47.40625 23.390625 
Q 47.40625 31.296875 43.53125 35.828125 
Q 39.65625 40.375 33.015625 40.375 
z
M 52.59375 71.296875 
L 52.59375 62.3125 
Q 48.875 64.0625 45.09375 64.984375 
Q 41.3125 65.921875 37.59375 65.921875 
Q 27.828125 65.921875 22.671875 59.328125 
Q 17.53125 52.734375 16.796875 39.40625 
Q 19.671875 43.65625 24.015625 45.921875 
Q 28.375 48.1875 33.59375 48.1875 
Q 44.578125 48.1875 50.953125 41.515625 
Q 57.328125 34.859375 57.328125 23.390625 
Q 57.328125 12.15625 50.6875 5.359375 
Q 44.046875 -1.421875 33.015625 -1.421875 
Q 20.359375 -1.421875 13.671875 8.265625 
Q 6.984375 17.96875 6.984375 36.375 
Q 6.984375 53.65625 15.1875 63.9375 
Q 23.390625 74.21875 37.203125 74.21875 
Q 40.921875 74.21875 44.703125 73.484375 
Q 48.484375 72.75 52.59375 71.296875 
z
" id="DejaVuSans-36"/>
      </defs>
      <g transform="translate(230.550118 322.182437)scale(0.1 -0.1)">
       <use xlink:href="#DejaVuSans-2212"/>
       <use x="83.789062" xlink:href="#DejaVuSans-36"/>
      </g>
     </g>
    </g>
    <g id="xtick_5">
     <g id="line2d_9">
      <path clip-path="url(#pf340f8b5b5)" d="M 290.929072 307.584 
L 290.929072 41.472 
" style="fill:none;stroke:#b0b0b0;stroke-linecap:square;stroke-width:0.8;"/>
     </g>
     <g id="line2d_10">
      <g>
       <use style="stroke:#000000;stroke-width:0.8;" x="290.929072" xlink:href="#m62dc06ea89" y="307.584"/>
      </g>
     </g>
     <g id="text_5">
      <!-- −4 -->
      <defs>
       <path d="M 37.796875 64.3125 
L 12.890625 25.390625 
L 37.796875 25.390625 
z
M 35.203125 72.90625 
L 47.609375 72.90625 
L 47.609375 25.390625 
L 58.015625 25.390625 
L 58.015625 17.1875 
L 47.609375 17.1875 
L 47.609375 0 
L 37.796875 0 
L 37.796875 17.1875 
L 4.890625 17.1875 
L 4.890625 26.703125 
z
" id="DejaVuSans-34"/>
      </defs>
      <g transform="translate(283.557979 322.182437)scale(0.1 -0.1)">
       <use xlink:href="#DejaVuSans-2212"/>
       <use x="83.789062" xlink:href="#DejaVuSans-34"/>
      </g>
     </g>
    </g>
    <g id="xtick_6">
     <g id="line2d_11">
      <path clip-path="url(#pf340f8b5b5)" d="M 343.936933 307.584 
L 343.936933 41.472 
" style="fill:none;stroke:#b0b0b0;stroke-linecap:square;stroke-width:0.8;"/>
     </g>
     <g id="line2d_12">
      <g>
       <use style="stroke:#000000;stroke-width:0.8;" x="343.936933" xlink:href="#m62dc06ea89" y="307.584"/>
      </g>
     </g>
     <g id="text_6">
      <!-- −2 -->
      <g transform="translate(336.56584 322.182437)scale(0.1 -0.1)">
       <use xlink:href="#DejaVuSans-2212"/>
       <use x="83.789062" xlink:href="#DejaVuSans-32"/>
      </g>
     </g>
    </g>
    <g id="xtick_7">
     <g id="line2d_13">
      <path clip-path="url(#pf340f8b5b5)" d="M 396.944794 307.584 
L 396.944794 41.472 
" style="fill:none;stroke:#b0b0b0;stroke-linecap:square;stroke-width:0.8;"/>
     </g>
     <g id="line2d_14">
      <g>
       <use style="stroke:#000000;stroke-width:0.8;" x="396.944794" xlink:href="#m62dc06ea89" y="307.584"/>
      </g>
     </g>
     <g id="text_7">
      <!-- 0 -->
      <g transform="translate(393.763544 322.182437)scale(0.1 -0.1)">
       <use xlink:href="#DejaVuSans-30"/>
      </g>
     </g>
    </g>
    <g id="text_8">
     <!-- x/m -->
     <defs>
      <path d="M 54.890625 54.6875 
L 35.109375 28.078125 
L 55.90625 0 
L 45.3125 0 
L 29.390625 21.484375 
L 13.484375 0 
L 2.875 0 
L 24.125 28.609375 
L 4.6875 54.6875 
L 15.28125 54.6875 
L 29.78125 35.203125 
L 44.28125 54.6875 
z
" id="DejaVuSans-78"/>
      <path d="M 25.390625 72.90625 
L 33.6875 72.90625 
L 8.296875 -9.28125 
L 0 -9.28125 
z
" id="DejaVuSans-2f"/>
      <path d="M 52 44.1875 
Q 55.375 50.25 60.0625 53.125 
Q 64.75 56 71.09375 56 
Q 79.640625 56 84.28125 50.015625 
Q 88.921875 44.046875 88.921875 33.015625 
L 88.921875 0 
L 79.890625 0 
L 79.890625 32.71875 
Q 79.890625 40.578125 77.09375 44.375 
Q 74.3125 48.1875 68.609375 48.1875 
Q 61.625 48.1875 57.5625 43.546875 
Q 53.515625 38.921875 53.515625 30.90625 
L 53.515625 0 
L 44.484375 0 
L 44.484375 32.71875 
Q 44.484375 40.625 41.703125 44.40625 
Q 38.921875 48.1875 33.109375 48.1875 
Q 26.21875 48.1875 22.15625 43.53125 
Q 18.109375 38.875 18.109375 30.90625 
L 18.109375 0 
L 9.078125 0 
L 9.078125 54.6875 
L 18.109375 54.6875 
L 18.109375 46.1875 
Q 21.1875 51.21875 25.484375 53.609375 
Q 29.78125 56 35.6875 56 
Q 41.65625 56 45.828125 52.96875 
Q 50 49.953125 52 44.1875 
z
" id="DejaVuSans-6d"/>
     </defs>
     <g transform="translate(226.645938 335.860562)scale(0.1 -0.1)">
      <use xlink:href="#DejaVuSans-78"/>
      <use x="59.179688" xlink:href="#DejaVuSans-2f"/>
      <use x="92.871094" xlink:href="#DejaVuSans-6d"/>
     </g>
    </g>
   </g>
   <g id="matplotlib.axis_2">
    <g id="ytick_1">
     <g id="line2d_15">
      <path clip-path="url(#pf340f8b5b5)" d="M 57.6 277.612806 
L 414.72 277.612806 
" style="fill:none;stroke:#b0b0b0;stroke-linecap:square;stroke-width:0.8;"/>
     </g>
     <g id="line2d_16">
      <defs>
       <path d="M 0 0 
L -3.5 0 
" id="mb348f15d96" style="stroke:#000000;stroke-width:0.8;"/>
      </defs>
      <g>
       <use style="stroke:#000000;stroke-width:0.8;" x="57.6" xlink:href="#mb348f15d96" y="277.612806"/>
      </g>
     </g>
     <g id="text_9">
      <!-- 0 -->
      <g transform="translate(44.2375 281.412025)scale(0.1 -0.1)">
       <use xlink:href="#DejaVuSans-30"/>
      </g>
     </g>
    </g>
    <g id="ytick_2">
     <g id="line2d_17">
      <path clip-path="url(#pf340f8b5b5)" d="M 57.6 244.031439 
L 414.72 244.031439 
" style="fill:none;stroke:#b0b0b0;stroke-linecap:square;stroke-width:0.8;"/>
     </g>
     <g id="line2d_18">
      <g>
       <use style="stroke:#000000;stroke-width:0.8;" x="57.6" xlink:href="#mb348f15d96" y="244.031439"/>
      </g>
     </g>
     <g id="text_10">
      <!-- 2 -->
      <g transform="translate(44.2375 247.830658)scale(0.1 -0.1)">
       <use xlink:href="#DejaVuSans-32"/>
      </g>
     </g>
    </g>
    <g id="ytick_3">
     <g id="line2d_19">
      <path clip-path="url(#pf340f8b5b5)" d="M 57.6 210.450072 
L 414.72 210.450072 
" style="fill:none;stroke:#b0b0b0;stroke-linecap:square;stroke-width:0.8;"/>
     </g>
     <g id="line2d_20">
      <g>
       <use style="stroke:#000000;stroke-width:0.8;" x="57.6" xlink:href="#mb348f15d96" y="210.450072"/>
      </g>
     </g>
     <g id="text_11">
      <!-- 4 -->
      <g transform="translate(44.2375 214.249291)scale(0.1 -0.1)">
       <use xlink:href="#DejaVuSans-34"/>
      </g>
     </g>
    </g>
    <g id="ytick_4">
     <g id="line2d_21">
      <path clip-path="url(#pf340f8b5b5)" d="M 57.6 176.868705 
L 414.72 176.868705 
" style="fill:none;stroke:#b0b0b0;stroke-linecap:square;stroke-width:0.8;"/>
     </g>
     <g id="line2d_22">
      <g>
       <use style="stroke:#000000;stroke-width:0.8;" x="57.6" xlink:href="#mb348f15d96" y="176.868705"/>
      </g>
     </g>
     <g id="text_12">
      <!-- 6 -->
      <g transform="translate(44.2375 180.667924)scale(0.1 -0.1)">
       <use xlink:href="#DejaVuSans-36"/>
      </g>
     </g>
    </g>
    <g id="ytick_5">
     <g id="line2d_23">
      <path clip-path="url(#pf340f8b5b5)" d="M 57.6 143.287338 
L 414.72 143.287338 
" style="fill:none;stroke:#b0b0b0;stroke-linecap:square;stroke-width:0.8;"/>
     </g>
     <g id="line2d_24">
      <g>
       <use style="stroke:#000000;stroke-width:0.8;" x="57.6" xlink:href="#mb348f15d96" y="143.287338"/>
      </g>
     </g>
     <g id="text_13">
      <!-- 8 -->
      <g transform="translate(44.2375 147.086557)scale(0.1 -0.1)">
       <use xlink:href="#DejaVuSans-38"/>
      </g>
     </g>
    </g>
    <g id="ytick_6">
     <g id="line2d_25">
      <path clip-path="url(#pf340f8b5b5)" d="M 57.6 109.705971 
L 414.72 109.705971 
" style="fill:none;stroke:#b0b0b0;stroke-linecap:square;stroke-width:0.8;"/>
     </g>
     <g id="line2d_26">
      <g>
       <use style="stroke:#000000;stroke-width:0.8;" x="57.6" xlink:href="#mb348f15d96" y="109.705971"/>
      </g>
     </g>
     <g id="text_14">
      <!-- 10 -->
      <g transform="translate(37.875 113.50519)scale(0.1 -0.1)">
       <use xlink:href="#DejaVuSans-31"/>
       <use x="63.623047" xlink:href="#DejaVuSans-30"/>
      </g>
     </g>
    </g>
    <g id="ytick_7">
     <g id="line2d_27">
      <path clip-path="url(#pf340f8b5b5)" d="M 57.6 76.124604 
L 414.72 76.124604 
" style="fill:none;stroke:#b0b0b0;stroke-linecap:square;stroke-width:0.8;"/>
     </g>
     <g id="line2d_28">
      <g>
       <use style="stroke:#000000;stroke-width:0.8;" x="57.6" xlink:href="#mb348f15d96" y="76.124604"/>
      </g>
     </g>
     <g id="text_15">
      <!-- 12 -->
      <g transform="translate(37.875 79.923823)scale(0.1 -0.1)">
       <use xlink:href="#DejaVuSans-31"/>
       <use x="63.623047" xlink:href="#DejaVuSans-32"/>
      </g>
     </g>
    </g>
    <g id="ytick_8">
     <g id="line2d_29">
      <path clip-path="url(#pf340f8b5b5)" d="M 57.6 42.543237 
L 414.72 42.543237 
" style="fill:none;stroke:#b0b0b0;stroke-linecap:square;stroke-width:0.8;"/>
     </g>
     <g id="line2d_30">
      <g>
       <use style="stroke:#000000;stroke-width:0.8;" x="57.6" xlink:href="#mb348f15d96" y="42.543237"/>
      </g>
     </g>
     <g id="text_16">
      <!-- 14 -->
      <g transform="translate(37.875 46.342456)scale(0.1 -0.1)">
       <use xlink:href="#DejaVuSans-31"/>
       <use x="63.623047" xlink:href="#DejaVuSans-34"/>
      </g>
     </g>
    </g>
    <g id="text_17">
     <!-- y/m -->
     <defs>
      <path d="M 32.171875 -5.078125 
Q 28.375 -14.84375 24.75 -17.8125 
Q 21.140625 -20.796875 15.09375 -20.796875 
L 7.90625 -20.796875 
L 7.90625 -13.28125 
L 13.1875 -13.28125 
Q 16.890625 -13.28125 18.9375 -11.515625 
Q 21 -9.765625 23.484375 -3.21875 
L 25.09375 0.875 
L 2.984375 54.6875 
L 12.5 54.6875 
L 29.59375 11.921875 
L 46.6875 54.6875 
L 56.203125 54.6875 
z
" id="DejaVuSans-79"/>
     </defs>
     <g transform="translate(31.795313 184.042062)rotate(-90)scale(0.1 -0.1)">
      <use xlink:href="#DejaVuSans-79"/>
      <use x="59.179688" xlink:href="#DejaVuSans-2f"/>
      <use x="92.871094" xlink:href="#DejaVuSans-6d"/>
     </g>
    </g>
   </g>
   <g id="line2d_31">
    <path clip-path="url(#pf340f8b5b5)" d="M 396.887003 277.611582 
L 396.890224 277.602527 
L 396.842143 277.664051 
L 396.879524 277.723416 
L 397.073198 277.815616 
L 397.238113 277.830921 
L 397.135763 277.717088 
L 396.888275 277.357709 
L 394.896531 274.652978 
L 392.893483 272.475781 
L 391.293891 271.02478 
L 389.256932 269.477838 
L 383.472926 265.558422 
L 378.520428 262.385352 
L 370.558223 257.657079 
L 367.804518 256.282594 
L 364.346285 254.856225 
L 361.921705 254.031131 
L 359.317429 253.409876 
L 355.593097 252.819851 
L 352.229218 252.473291 
L 347.205928 252.313108 
L 343.315681 252.215218 
L 329.763957 251.118115 
L 320.473799 250.018829 
L 316.607935 249.203809 
L 309.826375 247.756956 
L 302.129103 246.187027 
L 298.326054 245.149531 
L 293.933823 244.02976 
L 291.041714 243.594042 
L 284.670699 242.96372 
L 274.007903 242.080866 
L 263.414017 241.510654 
L 262.181849 241.545075 
L 255.810834 242.255657 
L 246.598068 243.192745 
L 243.163954 243.30222 
L 239.76562 243.155133 
L 236.364901 242.750814 
L 233.015599 242.155248 
L 229.279075 241.183907 
L 215.634321 237.509938 
L 208.131324 235.836578 
L 201.437491 234.506756 
L 195.526584 233.582261 
L 187.963953 232.616629 
L 181.949946 232.14649 
L 171.474002 231.580644 
L 156.570312 230.999518 
L 144.125657 230.632138 
L 132.786745 230.501842 
L 120.156297 230.312443 
L 114.487106 229.961686 
L 111.197968 229.558374 
L 108.112911 228.964487 
L 105.536729 228.265995 
L 103.138123 227.399092 
L 100.927695 226.347827 
L 99.249997 225.320909 
L 97.850589 224.241604 
L 96.599604 223.004466 
L 95.581853 221.683711 
L 94.62241 220.033691 
L 93.829943 218.141381 
L 91.290866 210.995769 
L 90.694528 208.687554 
L 90.387082 206.542041 
L 90.16975 203.205564 
L 89.809297 196.909897 
L 89.324275 190.400317 
L 89.459445 188.618322 
L 89.960369 185.68012 
L 93.379376 169.504479 
L 93.705374 166.620176 
L 94.240754 159.364418 
L 94.413029 153.105187 
L 94.572053 149.165085 
L 94.913954 146.841086 
L 95.873396 142.410529 
L 97.437128 136.506589 
L 100.08487 127.065187 
L 101.616798 120.418931 
L 103.45352 111.809508 
L 104.272491 106.908643 
L 104.80522 102.603512 
L 105.316746 98.51666 
L 105.913085 95.875485 
L 108.772859 85.560968 
L 109.573278 83.492356 
L 110.439956 81.814967 
L 111.648535 79.98982 
L 112.915423 78.451793 
L 114.701788 76.685413 
L 116.432495 75.271637 
L 118.650874 73.763834 
L 121.181999 72.353417 
L 123.47989 71.298962 
L 126.268103 70.25626 
L 129.188837 69.398256 
L 132.393692 68.696406 
L 135.55402 68.227946 
L 139.735015 67.875341 
L 176.423081 65.611957 
L 188.045585 64.7422 
L 191.236128 64.79593 
L 195.388764 65.146855 
L 223.740283 68.410964 
L 226.85635 69.082592 
L 229.832477 69.975856 
L 232.296017 70.971543 
L 234.324893 72.031036 
L 236.233176 73.293695 
L 237.891262 74.685643 
L 239.096926 75.966772 
L 240.096654 77.318422 
L 240.958562 78.895067 
L 241.489966 80.344103 
L 241.800857 81.82672 
L 241.883814 83.319412 
L 241.72214 85.156313 
L 241.192061 87.978827 
L 239.908211 93.63225 
L 239.140127 95.915783 
L 238.190491 97.984395 
L 237.197389 99.643315 
L 235.98722 101.250183 
L 234.359083 103.016563 
L 229.254426 108.164586 
L 227.296581 110.747497 
L 223.951785 115.662298 
L 219.991302 121.850841 
L 215.331116 129.596047 
L 213.605975 132.717939 
L 212.800256 134.686646 
L 211.955576 137.381887 
L 210.612887 142.565843 
L 209.116475 149.116392 
L 208.225413 153.90711 
L 207.855683 156.751955 
L 207.742776 160.048974 
L 207.815397 163.004974 
L 208.17267 166.303336 
L 208.899938 170.731207 
L 209.567307 173.815823 
L 210.383363 176.713056 
L 211.057092 178.417814 
L 211.997187 180.228521 
L 213.663489 182.816133 
L 218.582618 190.008087 
L 223.667928 197.007955 
L 226.959186 201.581737 
L 228.395699 203.974409 
L 229.303988 205.85866 
L 229.935842 207.601365 
L 230.341882 209.358342 
L 230.500376 210.941368 
L 230.430405 212.7148 
L 230.09089 214.468419 
L 229.473879 216.186609 
L 228.729913 217.609452 
L 227.79565 218.979068 
L 226.732577 220.223929 
L 225.184483 221.684551 
L 223.405274 223.044932 
L 221.415889 224.292312 
L 219.248397 225.402344 
L 216.909955 226.377211 
L 214.193833 227.27568 
L 211.337239 227.992139 
L 208.115421 228.559664 
L 204.812766 228.910085 
L 201.036751 229.059355 
L 197.389015 228.960625 
L 193.669719 228.626659 
L 189.939026 228.064003 
L 179.052271 226.250945 
L 176.201508 226.144828 
L 173.437679 226.257493 
L 170.207114 226.650731 
L 165.907647 227.439893 
L 154.981932 229.783873 
L 143.94914 232.141453 
L 141.246535 232.454767 
L 138.514509 232.583719 
L 134.768974 232.52109 
L 116.040237 231.84963 
L 112.260776 231.686089 
L 109.581229 231.339362 
L 107.020949 230.759243 
L 104.646197 229.961518 
L 102.724662 229.109895 
L 100.795176 227.995497 
L 99.260598 226.870689 
L 97.31786 225.165259 
L 93.124938 221.07337 
L 91.410134 219.200369 
L 90.212156 217.606094 
L 89.242112 215.96917 
L 87.908965 213.180909 
L 83.228371 202.579943 
L 82.902372 201.184637 
L 82.748649 199.69161 
L 82.793706 198.370519 
L 83.077298 196.80059 
L 83.572922 195.329558 
L 84.277926 193.909234 
L 85.126052 192.610811 
L 86.650028 190.735123 
L 89.4939 187.65185 
L 97.627956 178.909613 
L 99.016762 177.044504 
L 100.002708 175.365771 
L 100.747469 173.670248 
L 101.280198 171.921666 
L 101.600895 170.155622 
L 101.725464 168.384877 
L 101.63535 166.243897 
L 101.243092 163.304687 
L 99.973554 156.459965 
L 98.746422 151.186683 
L 98.325009 148.854793 
L 98.224295 147.088245 
L 98.362115 144.955996 
L 98.778227 142.034082 
L 100.675908 130.482595 
L 105.07291 114.331805 
L 106.429911 108.423163 
L 107.397305 104.254036 
L 108.71455 100.217556 
L 112.944578 88.02752 
L 114.876714 81.724297 
L 116.464299 75.750172 
L 117.585416 71.606231 
L 118.21886 70.152158 
L 118.950368 68.92308 
L 119.994623 67.60837 
L 121.12369 66.505222 
L 122.594659 65.35506 
L 124.463186 64.178033 
L 127.890144 62.359602 
L 136.485104 58.114917 
L 139.206527 57.038634 
L 141.729171 56.251151 
L 144.872802 55.525794 
L 148.52902 54.966664 
L 154.500885 54.320223 
L 159.696716 53.897097 
L 163.348427 53.863516 
L 166.665129 54.081795 
L 169.970699 54.545218 
L 173.455701 55.290724 
L 177.328986 56.377081 
L 186.498815 59.337279 
L 195.892339 62.2555 
L 202.319807 64.077289 
L 206.342043 64.945367 
L 211.771108 65.860459 
L 218.103427 66.72518 
L 225.047722 67.610049 
L 228.192679 68.303504 
L 230.673712 69.080912 
L 232.989625 70.036302 
L 235.120276 71.164636 
L 236.961504 72.40211 
L 238.361177 73.565704 
L 239.795039 75.058396 
L 240.965718 76.653511 
L 241.85784 78.31243 
L 242.405941 79.774899 
L 242.736976 81.202107 
L 242.910046 83.015501 
L 242.90342 85.685219 
L 242.440927 98.172451 
L 242.098761 99.572794 
L 241.447029 101.261936 
L 240.267339 103.547149 
L 232.122416 118.18577 
L 229.055382 124.473545 
L 226.132528 130.982957 
L 223.491146 137.378361 
L 219.16703 147.986043 
L 217.780875 150.258662 
L 212.842132 157.956351 
L 210.795234 161.965798 
L 209.38655 165.041851 
L 208.838979 166.777001 
L 208.540014 168.51131 
L 208.44142 170.60343 
L 208.561747 174.177327 
L 208.806909 176.853929 
L 209.127076 178.25528 
L 209.664841 179.695081 
L 210.392374 181.085853 
L 211.454386 182.533714 
L 212.280514 183.755404 
L 212.574442 184.582009 
L 212.627185 185.491393 
L 212.417539 186.420421 
L 211.676489 188.872701 
L 211.744339 190.017154 
L 211.963527 190.871464 
L 212.38865 191.636447 
L 212.806352 191.991402 
L 213.303831 192.190876 
L 213.942575 192.211696 
L 215.504187 191.999294 
L 216.001931 192.27718 
L 216.738475 193.082629 
L 218.516624 195.61416 
L 220.439219 198.285054 
L 222.217633 200.7192 
L 222.838355 201.889846 
L 223.306944 203.159054 
L 223.584705 204.631597 
L 223.61492 206.276748 
L 223.38248 208.314297 
L 222.514742 213.001249 
L 221.977507 215.12527 
L 221.445573 216.490856 
L 220.68173 217.903625 
L 219.694988 219.24923 
L 218.566186 220.444895 
L 216.898029 221.834156 
L 214.969073 223.102188 
L 212.833916 224.220448 
L 210.517472 225.193971 
L 206.850124 226.482656 
L 203.025076 227.616699 
L 200.355865 228.128479 
L 197.109664 228.502408 
L 193.199539 228.714138 
L 166.918507 229.616805 
L 156.230002 230.260728 
L 143.663163 231.312832 
L 130.593545 232.42723 
L 126.824686 232.434114 
L 122.205051 232.15371 
L 107.752458 230.88467 
L 103.9942 230.306902 
L 100.62025 229.542087 
L 97.609403 228.61776 
L 95.234651 227.659347 
L 93.758382 226.738714 
L 89.674127 223.860959 
L 85.807203 221.005535 
L 82.14436 217.972802 
L 79.260732 215.423976 
L 78.017698 214.06561 
L 76.782615 212.332644 
L 75.910635 210.663314 
L 75.287793 208.92615 
L 74.948543 207.297789 
L 74.858429 205.962762 
L 74.977697 204.542102 
L 75.396459 202.451998 
L 78.932083 186.324547 
L 79.875623 180.98662 
L 81.479111 174.712278 
L 82.192067 172.538388 
L 83.254875 170.13094 
L 88.28002 159.493202 
L 91.094737 152.297219 
L 92.942061 146.950394 
L 94.762881 141.145687 
L 96.390223 135.198091 
L 98.582098 126.777227 
L 103.411114 111.930401 
L 104.325499 109.800839 
L 105.557932 107.50975 
L 107.749807 104.055906 
L 112.160061 97.119675 
L 116.244317 90.072625 
L 119.149148 84.634123 
L 122.159994 79.047862 
L 123.27581 76.996041 
L 125.022419 73.582495 
L 126.119681 71.943724 
L 127.450179 70.402339 
L 129.048366 68.966736 
L 130.620049 67.856872 
L 132.196237 66.985435 
L 134.50473 65.996464 
L 137.131004 65.148534 
L 140.105805 64.413102 
L 148.347203 62.745788 
L 155.191843 61.494882 
L 158.831362 61.086868 
L 163.473791 60.838366 
L 172.33485 60.636878 
L 175.50366 60.749375 
L 182.008785 61.212798 
L 185.878093 61.736668 
L 189.76887 62.215202 
L 192.943246 62.367997 
L 206.368017 62.713885 
L 209.823069 63.167234 
L 212.441923 63.729722 
L 214.876044 64.500414 
L 217.141335 65.475953 
L 219.301935 66.701673 
L 221.655749 68.340443 
L 225.578596 71.433287 
L 231.287543 75.906325 
L 235.045005 78.910179 
L 237.014777 80.760512 
L 238.31877 82.261599 
L 239.574262 84.043091 
L 240.441735 85.621415 
L 241.013955 87.070451 
L 241.422381 88.720975 
L 241.580079 90.217025 
L 241.526541 91.800386 
L 241.266272 93.291399 
L 240.822862 94.745472 
L 239.982687 96.820801 
L 237.058773 103.186149 
L 231.285157 115.899215 
L 228.643245 121.507639 
L 220.864872 137.334873 
L 219.967184 139.659711 
L 219.014102 142.878989 
L 216.936459 150.242879 
L 216.09814 151.918085 
L 215.0189 153.53973 
L 213.705895 155.101599 
L 212.160451 156.581866 
L 210.394229 157.959709 
L 208.13954 159.395984 
L 205.979204 160.508535 
L 203.669917 161.477357 
L 200.832936 162.415957 
L 198.246948 163.057193 
L 194.642678 163.6855 
L 187.893717 164.554418 
L 177.612313 165.691315 
L 167.299633 166.65997 
L 157.484433 167.356111 
L 145.041897 167.534764 
L 138.359196 167.78377 
L 124.335967 168.202194 
L 119.830299 168.477897 
L 116.647177 168.891787 
L 113.994133 169.448734 
L 111.433853 170.190211 
L 108.897427 171.152485 
L 105.557932 172.68984 
L 100.68916 175.235811 
L 96.390223 177.740142 
L 93.837894 179.489731 
L 92.565705 180.568364 
L 91.338573 181.922197 
L 90.405635 183.28409 
L 89.515103 184.993381 
L 88.460247 187.698864 
L 86.941571 191.697229 
L 85.134003 195.639514 
L 79.817315 207.037702 
L 79.038099 209.205715 
L 78.826068 210.362089 
L 78.807515 211.585122 
L 79.04075 212.967835 
L 79.456861 214.144358 
L 80.034647 215.210735 
L 80.840366 216.302297 
L 81.990637 217.478317 
L 83.435101 218.607658 
L 85.102199 219.613084 
L 86.859409 220.447917 
L 89.456794 221.407504 
L 93.079882 222.469683 
L 99.74297 224.12961 
L 107.810766 226.134753 
L 114.434098 227.752368 
L 119.989322 228.86962 
L 127.519089 230.147391 
L 136.240472 231.368745 
L 149.236675 233.072496 
L 154.955958 233.989099 
L 160.733815 234.706062 
L 165.414939 235.082677 
L 172.462599 235.414293 
L 191.139654 235.948572 
L 200.357721 236.211178 
L 204.561509 236.57285 
L 207.676781 237.068343 
L 211.339624 237.904351 
L 218.339312 239.927964 
L 221.935896 240.873615 
L 232.726971 243.185189 
L 236.909291 243.594546 
L 245.26333 244.395125 
L 248.107467 244.920002 
L 253.132612 246.143371 
L 256.648359 247.199338 
L 259.601957 248.422539 
L 266.37106 251.246564 
L 269.886277 252.47581 
L 272.187083 253.108147 
L 274.39486 253.524052 
L 278.613756 254.041205 
L 292.621083 255.735049 
L 294.867291 256.319701 
L 311.975313 261.347688 
L 316.70759 262.52673 
L 321.839016 263.854671 
L 324.410163 264.680286 
L 328.245546 266.185369 
L 337.740314 269.861119 
L 352.552831 275.393598 
L 356.89338 277.470202 
L 359.397736 278.893771 
L 361.284021 280.242765 
L 362.750483 281.533145 
L 363.305741 282.196999 
L 363.489413 282.707671 
L 363.455488 283.16651 
L 363.122068 283.691353 
L 360.531044 286.527182 
L 360.597304 286.870333 
L 361.285346 287.763631 
L 363.136116 289.636934 
L 365.194411 291.460184 
L 367.41173 293.096721 
L 369.320013 294.218356 
L 371.44584 295.179051 
L 370.936938 295.149164 
L 369.660058 294.949523 
L 364.303084 293.809083 
L 363.894128 293.715995 
L 363.939715 293.726405 
" style="fill:none;stroke:#0000ff;stroke-linecap:square;stroke-width:1.5;"/>
   </g>
   <g id="line2d_32">
    <path clip-path="url(#pf340f8b5b5)" d="M 396.90625 277.611994 
L 396.808352 277.627692 
L 396.891816 277.720401 
L 397.205594 277.772882 
L 397.156282 277.741839 
L 397.014131 277.517325 
L 395.433901 275.192446 
L 394.163101 273.690654 
L 391.984584 271.498983 
L 390.335244 270.163737 
L 388.647394 268.943995 
L 381.724409 264.301623 
L 374.182821 259.641066 
L 368.55829 256.489455 
L 365.934666 255.34433 
L 362.597821 254.092417 
L 360.185698 253.435062 
L 357.250918 252.89373 
L 350.753479 252.226468 
L 345.346412 252.163335 
L 345.402866 252.163335 
L 345.106552 252.116657 
L 341.438408 251.856737 
L 324.930965 250.340203 
L 317.500058 249.227652 
L 311.743404 247.92587 
L 308.208045 247.249374 
L 300.72254 245.636629 
L 298.833075 245.101677 
L 293.720996 243.768497 
L 290.23573 243.258732 
L 283.637311 242.609604 
L 271.078424 241.626678 
L 261.732608 241.252077 
L 251.63355 242.377389 
L 246.454947 242.859282 
L 242.444637 242.973122 
L 239.621173 242.845849 
L 236.233706 242.456977 
L 232.919125 241.883575 
L 226.790356 240.278889 
L 221.948353 238.927911 
L 209.611833 235.897025 
L 201.714192 234.292171 
L 195.808056 233.346688 
L 187.405515 232.269565 
L 183.19086 231.927371 
L 174.146129 231.389062 
L 169.034581 231.153321 
L 163.80456 230.923456 
L 159.270002 230.76596 
L 138.426251 230.202968 
L 133.187484 230.156794 
L 118.568712 229.907956 
L 111.953331 229.367128 
L 108.823216 228.848128 
L 105.314096 227.946468 
L 103.273293 227.235215 
L 101.452473 226.448235 
L 99.303004 225.229903 
L 97.863841 224.185691 
L 96.557197 222.968031 
L 95.5633 221.755911 
L 94.693971 220.385791 
L 94.01017 218.950524 
L 92.59751 215.128964 
L 90.559358 208.999021 
L 90.201555 206.948543 
L 89.981572 204.245411 
L 89.780142 200.020203 
L 89.348128 194.374168 
L 89.056585 191.06506 
L 89.101642 189.012903 
L 89.348128 187.239471 
L 89.750988 185.109741 
L 90.895958 180.132478 
L 91.757335 176.212693 
L 92.316568 173.554896 
L 93.223003 168.194806 
L 93.774285 161.803264 
L 94.35207 148.006864 
L 95.208147 143.560691 
L 100.82433 122.081209 
L 102.867783 112.677083 
L 103.959745 106.238695 
L 104.444767 102.286168 
L 104.754863 99.426715 
L 105.250486 96.698229 
L 109.032597 83.487319 
L 110.026495 81.474116 
L 110.840165 80.224889 
L 112.268727 78.379593 
L 113.726443 76.870111 
L 114.85286 75.832446 
L 118.216209 73.431379 
L 119.647422 72.578412 
L 124.198146 70.49133 
L 128.725018 69.072517 
L 130.975201 68.546969 
L 134.114857 68.018062 
L 136.466551 67.757807 
L 141.110039 67.4455 
L 161.491032 66.330599 
L 167.770078 65.889004 
L 173.551115 65.469236 
L 180.078768 64.908428 
L 184.257908 64.54407 
L 187.503845 64.39967 
L 190.694653 64.4534 
L 193.463253 64.67 
L 196.786316 65.034358 
L 212.047544 66.788984 
L 219.597984 67.53617 
L 224.128036 68.249774 
L 227.15346 68.970094 
L 229.282255 69.640042 
L 231.727243 70.625655 
L 233.809127 71.71705 
L 235.700447 72.962919 
L 237.378146 74.36662 
L 238.82473 75.95166 
L 239.575587 76.992683 
L 240.561268 78.717086 
L 241.407008 82.405999 
L 241.354265 84.167342 
L 240.705979 87.970431 
L 240.194188 90.356388 
L 239.329365 93.904259 
L 238.801142 95.385197 
L 238.447049 96.258313 
L 237.615091 97.969283 
L 236.749738 99.372985 
L 235.817329 100.675942 
L 233.626249 103.061898 
L 229.116076 107.605457 
L 227.753774 109.254302 
L 226.865097 110.478678 
L 223.291837 115.721569 
L 219.709301 121.320591 
L 218.393645 123.497167 
L 217.170224 125.491397 
L 216.381997 126.831629 
L 215.184815 128.812594 
L 213.920577 131.001595 
L 213.290314 132.173753 
L 211.947625 135.609127 
L 210.945246 139.099742 
L 210.4642 141.127888 
L 210.224604 142.003355 
L 208.642849 148.805261 
L 208.03697 152.00758 
L 207.59992 154.384805 
L 207.274451 161.535621 
L 207.496289 164.649957 
L 207.596209 165.374811 
L 207.885367 167.48456 
L 208.718386 172.080338 
L 209.69426 175.855555 
L 210.997724 179.072315 
L 211.881895 180.780934 
L 212.232277 181.286334 
L 213.157529 182.678785 
L 213.827283 183.67951 
L 214.935678 185.248767 
L 215.679643 186.299696 
L 219.344341 191.515554 
L 222.685692 196.090176 
L 227.229261 202.590185 
L 228.485017 204.966739 
L 229.078175 206.363724 
L 229.778939 209.009432 
L 229.929481 210.583054 
L 229.863751 212.36102 
L 229.635288 213.783695 
L 228.940885 215.859359 
L 227.676382 218.11015 
L 226.896106 219.14496 
L 224.678788 221.389035 
L 222.904084 222.756132 
L 219.856132 224.589675 
L 216.425729 226.116955 
L 213.715967 227.026003 
L 210.320548 227.85731 
L 206.551689 228.462614 
L 202.517261 228.80145 
L 198.355349 228.833856 
L 194.144404 228.550093 
L 190.011646 227.983743 
L 178.19805 226.03636 
L 175.20178 225.943172 
L 172.334585 226.089251 
L 169.208711 226.491555 
L 164.896522 227.290792 
L 155.411295 229.317763 
L 150.120846 230.515946 
L 142.085914 232.075969 
L 139.388609 232.309191 
L 134.853787 232.325143 
L 118.804597 231.642266 
L 113.729094 231.581315 
L 109.981438 231.268337 
L 107.394654 230.79081 
L 105.284942 230.192558 
L 103.026807 229.319946 
L 101.258995 228.434405 
L 99.6078 227.385324 
L 98.150084 226.239191 
L 95.944956 224.211213 
L 91.410134 219.688978 
L 90.098189 218.107967 
L 89.043333 216.504625 
L 88.174004 214.844362 
L 86.485704 211.084424 
L 83.930725 205.588666 
L 82.88382 203.146293 
L 82.430602 201.753841 
L 82.123157 199.57609 
L 82.470358 196.693969 
L 82.828161 195.487894 
L 83.949278 193.321392 
L 84.712591 192.19692 
L 89.576062 186.789313 
L 90.999323 185.300986 
L 92.698225 183.47819 
L 96.549246 179.373371 
L 98.780877 176.371701 
L 99.687311 174.668286 
L 100.365812 172.943715 
L 100.82168 171.178175 
L 101.097321 169.136763 
L 101.033711 166.093956 
L 100.877338 164.662214 
L 100.058366 159.862597 
L 99.957652 159.311359 
L 99.064469 154.875261 
L 98.510537 152.498036 
L 97.702167 148.686215 
L 97.590851 147.443032 
L 97.826736 143.899694 
L 98.065271 142.500527 
L 98.370066 140.358539 
L 98.59535 138.939894 
L 98.873641 136.807646 
L 99.085672 135.377247 
L 99.350712 133.219812 
L 101.235141 126.18502 
L 101.391514 125.651244 
L 103.509178 117.691956 
L 104.026005 115.587412 
L 104.402361 114.151473 
L 104.905935 112.038533 
L 105.253137 110.622407 
L 105.695753 108.498721 
L 106.003198 107.074871 
L 106.321245 105.565389 
L 107.238281 102.296243 
L 107.755108 100.816983 
L 110.930279 91.852437 
L 111.057498 91.63248 
L 111.219172 90.974285 
L 113.456103 84.0263 
L 114.184961 81.485869 
L 116.090594 74.161773 
L 116.546462 72.388677 
L 117.156052 70.555134 
L 118.200307 68.661145 
L 119.239261 67.348114 
L 121.45764 65.360097 
L 123.273159 64.1646 
L 126.252201 62.554374 
L 136.15619 57.653173 
L 140.024173 56.242756 
L 144.58391 55.173189 
L 146.776315 54.832338 
L 149.549686 54.499883 
L 158.866348 53.62173 
L 163.06616 53.606619 
L 166.814611 53.922283 
L 170.37727 54.516674 
L 173.024217 55.129534 
L 176.901212 56.237719 
L 200.204263 63.482899 
L 204.159445 64.409744 
L 207.665119 65.056186 
L 213.111677 65.910831 
L 221.032642 66.872938 
L 223.331063 67.17517 
L 226.010345 67.685607 
L 228.558433 68.368988 
L 230.970291 69.242103 
L 233.203512 70.288163 
L 234.87485 71.255306 
L 236.709187 72.58177 
L 238.543524 74.321285 
L 239.417888 75.340479 
L 240.335984 76.705562 
L 240.94478 77.796956 
L 241.510639 79.251029 
L 241.846178 80.389438 
L 242.052909 81.873734 
L 242.146203 83.039008 
L 242.16078 85.085792 
L 242.104592 86.331661 
L 242.086304 86.874 
L 241.946098 91.682852 
L 241.947423 93.121813 
L 241.933906 94.632975 
L 241.769847 97.312768 
L 241.394551 99.07411 
L 240.88011 100.523146 
L 240.412581 101.626294 
L 238.914579 104.418585 
L 238.080765 105.855867 
L 233.281168 114.310312 
L 229.497732 121.685956 
L 228.862698 123.055572 
L 228.190293 124.499739 
L 225.19853 131.093944 
L 224.638502 132.483373 
L 224.114254 133.675008 
L 223.564297 135.072328 
L 222.970079 136.54101 
L 218.682803 147.19453 
L 215.588204 152.164069 
L 214.629292 153.563908 
L 212.665351 156.625857 
L 212.599091 156.85505 
L 212.192786 157.466063 
L 211.486986 158.819056 
L 210.848507 160.006326 
L 210.185643 161.38971 
L 209.593545 162.554815 
L 208.973618 163.941054 
L 208.464478 165.140077 
L 207.702225 168.58838 
L 207.73403 173.893732 
L 208.407229 178.315726 
L 209.533116 180.784964 
L 211.558282 183.761952 
L 211.7454 184.284982 
L 211.796287 185.204104 
L 211.362418 186.798212 
L 210.846651 188.327003 
L 210.916357 189.73104 
L 211.135809 190.579642 
L 211.386801 191.14045 
L 211.902568 191.693703 
L 212.561986 191.923064 
L 213.245522 191.846331 
L 214.047531 191.662641 
L 214.686541 191.776481 
L 215.15513 192.083415 
L 215.979667 193.000522 
L 216.709851 193.988654 
L 220.387801 199.077574 
L 221.319414 200.395811 
L 222.311191 202.500523 
L 222.659188 204.29679 
L 222.766529 205.629803 
L 222.630034 207.396686 
L 222.265605 209.519868 
L 222.021503 210.951778 
L 221.735261 212.440944 
L 221.243348 214.479333 
L 219.998458 217.356584 
L 218.211298 219.750432 
L 215.147179 222.239483 
L 212.032437 223.9884 
L 207.684202 225.723885 
L 203.922499 226.949437 
L 201.296755 227.623248 
L 198.616678 228.075589 
L 195.449723 228.392765 
L 187.533794 228.704568 
L 158.661737 229.847341 
L 147.458261 230.714916 
L 128.812481 232.269565 
L 125.586952 232.23951 
L 119.721633 231.84728 
L 106.978543 230.72902 
L 102.77767 230.074855 
L 99.782726 229.39584 
L 96.740074 228.478229 
L 94.155941 227.463736 
L 93.466839 227.042122 
L 91.866002 225.922183 
L 87.548511 222.869805 
L 84.256723 220.37068 
L 79.239529 216.167804 
L 77.508822 214.484202 
L 76.517575 213.258818 
L 75.388508 211.46255 
L 74.601341 209.687775 
L 73.832727 206.093058 
L 74.058011 203.904056 
L 74.277993 202.935066 
L 76.088212 195.470768 
L 76.342649 194.230944 
L 76.631542 193.081621 
L 77.609537 188.367133 
L 77.803016 187.112869 
L 78.028299 185.962539 
L 78.23238 184.446173 
L 78.441761 183.288623 
L 78.64054 182.142155 
L 78.879076 180.884029 
L 79.194472 179.7337 
L 79.549625 178.238657 
L 79.875623 177.085977 
L 80.230776 175.586904 
L 81.052398 172.782021 
L 81.892573 170.716263 
L 83.848563 166.886308 
L 84.540315 165.425351 
L 85.107499 164.323882 
L 85.645529 163.117807 
L 86.183559 161.992831 
L 88.105094 157.386139 
L 88.558311 156.16999 
L 89.030081 155.038634 
L 90.715731 150.438658 
L 91.11329 149.231408 
L 91.529402 148.083765 
L 93.456237 142.272677 
L 93.935959 140.548778 
L 94.428932 138.953999 
L 95.542097 134.587581 
L 97.580249 126.658349 
L 98.878942 122.743601 
L 99.07242 122.6306 
L 99.20229 121.897015 
L 99.856937 119.764934 
L 100.384365 118.188792 
L 100.882639 116.448102 
L 101.410067 114.854499 
L 102.719361 110.953015 
L 103.000303 110.897942 
L 102.952596 110.351573 
L 103.31835 109.670711 
L 103.909388 108.51887 
L 104.794619 106.925434 
L 105.995247 105.085175 
L 107.020949 103.483344 
L 108.028098 101.988973 
L 111.168814 96.992066 
L 112.115004 95.3449 
L 113.039992 93.816947 
L 115.902416 88.759594 
L 116.761143 87.093958 
L 117.606619 85.550894 
L 118.857604 83.054119 
L 121.091886 78.866523 
L 122.2024 76.804627 
L 123.705173 73.720178 
L 123.925156 73.649657 
L 123.959611 73.384365 
L 124.468486 72.556584 
L 125.038321 71.745594 
L 125.732724 70.884232 
L 127.12418 69.475494 
L 127.953753 68.771964 
L 128.846936 68.103695 
L 130.185384 67.238975 
L 130.551139 67.094575 
L 131.001705 66.777231 
L 134.723917 65.323158 
L 137.160954 64.641456 
L 141.236198 63.754908 
L 151.759054 61.698049 
L 157.102776 60.949184 
L 163.852797 60.606655 
L 171.96194 60.465613 
L 175.906255 60.670459 
L 182.187686 61.199366 
L 189.226865 62.09263 
L 192.526074 62.203449 
L 202.281376 62.322662 
L 205.830782 62.586276 
L 209.507408 63.13869 
L 212.120695 63.795205 
L 214.502073 64.643135 
L 216.701104 65.689194 
L 218.913918 67.032449 
L 221.227711 68.701443 
L 225.198265 71.848017 
L 227.747943 73.891443 
L 231.046622 76.40333 
L 234.258103 79.032751 
L 235.89154 80.597642 
L 237.763778 82.928189 
L 239.412322 85.807791 
L 240.220162 88.237403 
L 240.430073 91.414201 
L 240.233149 92.819581 
L 238.602627 97.502502 
L 236.273727 102.580005 
L 235.457141 104.260753 
L 234.77758 105.812212 
L 231.857642 112.183101 
L 228.419552 119.759393 
L 227.19189 122.200926 
L 226.587336 123.382655 
L 225.831443 124.930588 
L 221.236457 134.084533 
L 220.37932 136.011263 
L 219.614947 137.668 
L 218.912857 139.522027 
L 218.395501 141.139138 
L 217.876024 143.099618 
L 217.41247 144.78087 
L 217.049366 146.364735 
L 216.311497 148.840017 
L 214.683625 152.291006 
L 212.38706 155.22988 
L 210.819617 156.705445 
L 209.028482 158.073046 
L 207.064275 159.328989 
L 204.906325 160.446913 
L 202.603399 161.428496 
L 199.731698 162.382207 
L 197.193947 163.027977 
L 193.193443 163.731003 
L 183.772621 164.913739 
L 169.669085 166.366133 
L 159.086065 167.238577 
L 155.962047 167.370887 
L 143.299264 167.581442 
L 138.204148 167.780412 
L 122.141441 168.254245 
L 118.372582 168.515844 
L 115.608223 168.877347 
L 112.96313 169.412299 
L 110.771255 170.023983 
L 108.261333 170.91943 
L 104.540181 172.598667 
L 95.422829 177.635032 
L 92.859899 179.377065 
L 91.166298 180.764144 
L 89.708582 182.574683 
L 88.741188 184.214965 
L 87.893062 186.105092 
L 87.543211 187.180032 
L 85.913219 191.492215 
L 85.226767 193.054756 
L 82.82021 198.212686 
L 82.022442 199.880001 
L 81.717647 200.608045 
L 80.888074 202.27855 
L 80.169817 203.838405 
L 78.240331 208.12238 
L 77.734106 209.921502 
L 77.781813 212.252384 
L 78.587532 214.424091 
L 79.083156 215.305266 
L 80.850968 217.24224 
L 82.292782 218.356805 
L 84.256723 219.526444 
L 86.920368 220.658136 
L 89.785443 221.575915 
L 94.924555 222.937304 
L 116.374186 228.09473 
L 124.015269 229.455951 
L 132.565437 230.725662 
L 148.763049 232.867146 
L 153.18523 233.579407 
L 160.272381 234.440097 
L 164.181711 234.735949 
L 172.014683 235.085699 
L 191.266608 235.616117 
L 201.558879 236.033701 
L 204.948997 236.455315 
L 207.360854 236.907824 
L 210.897009 237.788327 
L 220.230368 240.424968 
L 231.424833 242.818984 
L 235.096687 243.190058 
L 242.127915 243.768329 
L 246.713095 244.519544 
L 250.092081 245.328352 
L 253.747503 246.30876 
L 255.944149 247.087344 
L 259.214469 248.450915 
L 262.634536 249.907171 
L 266.522928 251.398352 
L 270.78317 252.686869 
L 273.566347 253.209563 
L 273.526592 253.179339 
L 273.632342 253.183201 
L 276.170889 253.483083 
L 281.585377 254.074954 
L 284.438525 254.372317 
L 287.620852 254.700743 
L 289.636476 254.990886 
L 293.043026 255.766448 
L 304.821108 259.274693 
L 312.007383 261.283514 
L 320.105129 263.338727 
L 322.823372 264.19381 
L 326.287171 265.517218 
L 336.021534 269.278952 
L 350.334452 274.575288 
L 356.634171 277.641385 
L 358.539539 278.832671 
L 360.353998 280.196926 
L 361.937343 281.886791 
L 362.068537 282.405421 
L 361.983725 282.723672 
L 361.648185 283.257146 
L 360.107511 284.769718 
L 359.291985 285.690384 
L 359.05398 286.244443 
L 359.510378 286.940954 
L 363.760018 290.960359 
L 365.980782 292.604402 
L 367.889065 293.720881 
L 369.941 294.703203 
L 369.553247 294.681376 
L 368.08758 294.478208 
L 362.918518 293.371131 
L 362.32006 293.200941 
L 362.601531 293.280227 
" style="fill:none;stroke:#ff0000;stroke-linecap:square;stroke-width:1.5;"/>
   </g>
   <g id="line2d_33">
    <path clip-path="url(#pf340f8b5b5)" d="M 396.933198 277.612553 
L 396.336415 277.683803 
L 396.236559 277.972028 
L 396.304775 278.222276 
L 396.534113 278.273919 
L 396.871182 277.987188 
L 397.073032 277.682941 
L 397.122862 277.801663 
L 398.29209 278.149055 
L 398.29271 278.145383 
L 398.487273 278.089311 
L 398.421344 278.043566 
L 398.190948 277.876858 
L 397.064707 277.632488 
L 395.905186 277.749468 
L 395.577056 278.043786 
L 395.087534 278.54528 
L 394.580193 278.756839 
L 393.503047 278.421343 
L 391.906795 277.527843 
L 391.493068 277.202425 
L 390.691616 276.354351 
L 390.160186 275.792276 
L 389.538881 274.254267 
L 389.21646 273.35531 
L 388.697381 272.066659 
L 388.634248 271.704803 
L 388.309443 270.617724 
L 388.269607 270.262886 
L 387.963275 269.26646 
L 387.288379 267.314811 
L 386.038745 265.452842 
L 384.624442 264.079935 
L 382.381627 262.538601 
L 382.241262 262.49837 
L 381.683036 262.069368 
L 381.040634 261.851358 
L 376.205522 260.204394 
L 370.904603 258.183803 
L 368.481958 257.083509 
L 363.044147 254.84061 
L 362.364851 254.491028 
L 361.431648 254.201892 
L 355.984825 253.060965 
L 354.760343 252.658996 
L 353.135387 252.325533 
L 348.756408 252.268277 
L 347.787954 252.077871 
L 347.301077 251.855394 
L 347.043459 251.257982 
L 346.78213 250.04519 
L 346.416111 249.930006 
L 346.015372 250.016814 
L 345.456139 250.514658 
L 345.004247 251.222553 
L 344.169638 253.345231 
L 344.100728 254.278122 
L 344.244909 254.684456 
L 344.364972 254.728112 
L 344.628156 254.55819 
L 345.032871 253.922159 
L 345.813147 252.221935 
L 346.182346 251.423873 
L 346.199839 251.415646 
L 346.135169 251.596818 
L 346.079511 251.709651 
L 345.917042 251.725938 
L 345.721443 251.838939 
L 345.692819 251.927426 
L 344.922349 252.310757 
L 343.362063 252.800038 
L 341.139178 253.394092 
L 338.231962 253.84509 
L 336.103432 253.936263 
L 332.21186 253.588864 
L 327.838181 252.473123 
L 326.5864 252.054699 
L 322.90898 250.393261 
L 322.00175 249.631132 
L 321.974981 249.361138 
L 322.240021 248.938684 
L 323.036994 248.335059 
L 322.898908 248.219875 
L 321.268917 248.052304 
L 319.625408 248.042062 
L 311.814965 247.537166 
L 309.147609 247.644123 
L 301.612277 247.289503 
L 301.046418 247.089023 
L 300.675098 246.911209 
L 299.60964 246.496815 
L 298.906225 246.199284 
L 294.945213 244.644971 
L 292.83762 243.781762 
L 290.816961 243.138343 
L 288.698767 243.005193 
L 286.719453 242.8979 
L 276.468263 242.022602 
L 274.503261 241.863594 
L 273.199533 241.787364 
L 270.818155 241.686788 
L 268.957314 241.628189 
L 265.882593 241.485972 
L 263.703175 241.425357 
L 265.196936 241.548601 
L 264.922886 241.58319 
L 263.238561 241.520728 
L 260.610431 241.37784 
L 260.479237 241.528284 
L 259.294776 241.750089 
L 250.833131 242.785403 
L 246.484631 243.279385 
L 240.897868 243.879819 
L 238.55598 243.518316 
L 237.335474 243.17948 
L 233.609022 241.743037 
L 231.57034 240.670448 
L 228.287563 239.330719 
L 225.724898 238.640454 
L 224.916263 238.468854 
L 221.856384 237.727377 
L 216.336145 236.730011 
L 207.579247 235.854544 
L 205.039375 235.417315 
L 201.825243 234.996205 
L 188.003974 233.340139 
L 181.36951 232.615621 
L 174.863325 232.248241 
L 168.982898 231.822933 
L 162.408333 231.398633 
L 151.236131 230.445426 
L 142.419069 229.996611 
L 136.589794 229.866147 
L 133.178473 229.726113 
L 125.50479 229.654752 
L 123.217501 229.731318 
L 119.795844 229.649883 
L 114.786601 229.459645 
L 113.02939 229.376195 
L 110.357794 229.34933 
L 108.722501 229.070604 
L 103.79012 227.811807 
L 100.662656 226.418516 
L 99.210241 225.448014 
L 97.985759 224.363336 
L 97.230397 223.368992 
L 96.432629 222.079132 
L 95.891949 220.588119 
L 95.714372 219.617953 
L 95.608357 217.697939 
L 94.858295 215.349258 
L 94.15064 213.7528 
L 92.364275 211.022802 
L 91.107989 209.070382 
L 89.485949 206.18356 
L 88.836602 204.321809 
L 88.598067 202.990307 
L 87.824152 195.049154 
L 87.826803 194.526963 
L 87.74464 192.818008 
L 87.580316 188.658284 
L 88.354231 186.882501 
L 89.003577 185.839967 
L 89.798695 184.447012 
L 91.121241 181.594107 
L 91.706978 180.059775 
L 93.331669 174.709088 
L 93.869699 172.962856 
L 94.479289 169.806544 
L 94.717825 168.264823 
L 94.993465 160.762242 
L 94.906002 156.225567 
L 94.815889 155.07104 
L 94.675418 153.200054 
L 94.55085 151.988942 
L 94.373273 150.496754 
L 94.118836 147.876904 
L 94.269908 146.504433 
L 94.503143 145.386174 
L 95.547398 142.649964 
L 96.23915 140.62081 
L 96.970659 138.671747 
L 97.201243 137.795777 
L 97.932751 135.827909 
L 99.196989 131.779172 
L 99.469979 130.526419 
L 99.766823 129.250495 
L 100.265097 126.982073 
L 100.879988 123.800071 
L 101.09202 122.57687 
L 101.285498 120.99821 
L 101.873886 118.6502 
L 102.965848 114.236433 
L 103.758315 111.211424 
L 105.102064 103.478307 
L 105.218682 99.958979 
L 105.372405 97.616679 
L 105.913085 95.383518 
L 106.740007 93.721241 
L 108.526372 89.419467 
L 109.231377 86.996572 
L 109.923129 83.925556 
L 111.038945 81.427102 
L 112.324386 79.600276 
L 113.23082 78.557574 
L 115.708937 76.415083 
L 118.4892 74.472401 
L 120.1775 73.543876 
L 121.698826 72.709379 
L 123.201599 71.906785 
L 129.456526 69.460382 
L 133.208688 68.290071 
L 136.990533 67.368263 
L 138.475549 67.151663 
L 143.225848 66.809133 
L 158.283261 65.736208 
L 160.748127 65.514571 
L 162.359566 65.375209 
L 165.146189 65.167004 
L 174.454899 64.619628 
L 175.219538 64.634739 
L 177.922674 64.628023 
L 181.773165 64.574293 
L 184.935614 64.522242 
L 189.716128 64.312358 
L 191.48818 64.569256 
L 194.208809 65.361776 
L 198.558634 66.74197 
L 201.06034 67.225542 
L 203.212724 67.531132 
L 210.703 68.374025 
L 216.649157 68.733345 
L 224.944092 68.988564 
L 226.815534 69.28408 
L 229.125617 69.831456 
L 231.556823 70.639088 
L 233.650103 71.676752 
L 234.822902 72.425617 
L 236.519949 73.795736 
L 238.643709 75.983562 
L 239.705456 77.348645 
L 240.733543 79.193941 
L 241.307354 80.622828 
L 241.698021 82.023171 
L 241.835047 82.871101 
L 241.746524 84.083388 
L 241.264682 85.796038 
L 240.557292 88.26091 
L 240.196309 90.720745 
L 239.368856 97.609963 
L 238.696451 99.799468 
L 237.497148 102.118261 
L 235.710253 104.074376 
L 234.722452 104.845068 
L 231.612746 106.634955 
L 230.201146 107.489601 
L 228.540675 108.831177 
L 227.179963 110.286257 
L 224.137312 114.394937 
L 222.082462 117.484087 
L 216.010942 127.569076 
L 214.74856 129.86134 
L 212.05311 134.27326 
L 211.494937 136.5081 
L 210.440081 141.634967 
L 209.676503 144.314256 
L 208.929357 147.398705 
L 208.182741 151.250824 
L 207.36589 155.891265 
L 207.19441 157.271123 
L 207.136631 158.772546 
L 207.307316 160.395701 
L 207.202361 162.29775 
L 207.471906 165.175337 
L 208.765033 170.479011 
L 209.144569 171.831668 
L 209.459966 173.333427 
L 211.495732 179.11362 
L 211.95001 179.806571 
L 212.79469 180.537805 
L 213.196755 180.675153 
L 213.830994 180.545529 
L 214.204169 180.225163 
L 214.441114 179.64941 
L 214.47928 179.835619 
L 214.514 180.472322 
L 214.745909 184.916648 
L 215.585554 187.73765 
L 216.862513 190.176161 
L 218.389935 192.362644 
L 220.464928 194.740037 
L 221.904091 196.351439 
L 226.098868 201.168686 
L 227.188975 202.748018 
L 228.210171 204.699767 
L 228.750321 205.943117 
L 229.265293 207.793618 
L 229.427497 209.477724 
L 229.402318 211.736574 
L 229.14258 213.118448 
L 228.968449 214.215887 
L 228.004766 216.805514 
L 227.160351 218.293672 
L 225.920497 220.217884 
L 224.945417 221.247321 
L 222.754072 223.157765 
L 220.215791 224.828438 
L 216.832564 226.289564 
L 215.11935 226.890166 
L 211.871558 227.69125 
L 207.080443 228.323083 
L 202.130569 228.574776 
L 200.1494 228.467987 
L 198.264175 228.359855 
L 196.287247 228.244503 
L 190.592348 227.376089 
L 187.582561 226.74946 
L 185.513134 226.377547 
L 182.895076 225.857539 
L 177.055465 225.271376 
L 173.796807 225.408388 
L 171.764485 225.712468 
L 169.233625 226.392155 
L 167.469789 226.986881 
L 165.52334 227.935386 
L 161.147011 230.082243 
L 159.052405 230.681503 
L 156.810173 231.325929 
L 153.761161 231.852485 
L 151.677422 232.111901 
L 147.794331 232.474076 
L 145.357294 232.707466 
L 142.401046 232.729294 
L 140.669014 232.506482 
L 132.841078 231.096736 
L 127.410423 230.142018 
L 120.962016 229.759358 
L 120.662522 229.826185 
L 116.610071 229.974615 
L 109.79326 231.03864 
L 107.720653 230.705177 
L 106.244384 230.319999 
L 103.888184 229.418507 
L 102.533834 228.670986 
L 99.236745 226.094959 
L 97.084625 223.943737 
L 94.715174 221.72871 
L 92.510047 220.136785 
L 88.876358 217.583258 
L 87.948721 216.488506 
L 87.331179 215.55444 
L 82.7513 206.865261 
L 80.843017 203.852509 
L 80.617733 203.251067 
L 80.278483 201.989583 
L 80.339442 200.977104 
L 80.768806 198.865508 
L 81.481762 197.544585 
L 83.379443 194.742388 
L 85.892016 192.007018 
L 90.699829 187.834197 
L 99.597198 177.737119 
L 100.882639 175.719215 
L 101.396815 174.637055 
L 101.592944 173.767466 
L 101.738716 172.240353 
L 101.624749 170.817343 
L 101.22984 168.720187 
L 100.209439 165.341901 
L 100.026562 164.85262 
L 99.655507 162.652537 
L 99.615751 161.861024 
L 99.74297 160.668046 
L 99.795978 160.131752 
L 99.851636 158.038122 
L 100.068968 156.844472 
L 100.153781 154.421073 
L 100.201488 152.512476 
L 99.74297 148.434522 
L 99.848985 146.561354 
L 100.188236 144.849879 
L 100.334007 143.78535 
L 100.901191 140.570941 
L 101.054914 139.565515 
L 101.349108 137.652721 
L 101.478977 136.439426 
L 101.587643 135.179117 
L 101.614147 133.444975 
L 101.531985 132.053867 
L 101.645952 130.906392 
L 101.667155 129.58295 
L 102.282046 125.605909 
L 102.536484 123.075721 
L 102.594793 121.749761 
L 102.64515 120.609841 
L 102.793572 119.34332 
L 102.878385 118.214314 
L 104.049858 113.918586 
L 104.778717 111.335339 
L 105.147121 109.926265 
L 105.579135 108.189773 
L 105.836223 106.811257 
L 106.035003 105.708109 
L 106.42196 104.383325 
L 106.599537 103.503493 
L 107.023599 102.55314 
L 107.83727 100.675942 
L 108.388552 99.386417 
L 109.3851 97.248963 
L 110.002641 95.677355 
L 110.410802 94.780733 
L 111.07075 93.59531 
L 113.254673 88.042631 
L 113.872215 86.382033 
L 114.799853 83.598137 
L 115.597621 80.795772 
L 116.072041 78.970625 
L 116.443096 77.618975 
L 116.936069 75.424433 
L 117.34688 73.669806 
L 117.513855 72.716095 
L 118.107543 70.981618 
L 118.515704 70.11354 
L 119.684527 68.47309 
L 120.824196 67.218826 
L 122.713926 65.506176 
L 124.778582 64.011805 
L 126.9201 62.75922 
L 130.047564 61.175859 
L 133.455439 59.469925 
L 139.576257 56.189026 
L 140.739779 55.707133 
L 145.558724 54.798757 
L 150.221561 54.426004 
L 152.661247 54.342051 
L 155.830587 54.078437 
L 161.840884 53.940753 
L 164.826552 54.254739 
L 171.485134 55.685305 
L 172.888782 56.138654 
L 185.491666 59.735218 
L 188.573278 60.386697 
L 190.785031 60.856836 
L 193.415811 61.330333 
L 195.411557 61.829016 
L 197.995956 62.349527 
L 204.913481 63.958075 
L 208.166839 64.441647 
L 212.354725 64.894995 
L 216.480592 65.405432 
L 219.781391 65.816804 
L 221.645943 66.016613 
L 223.37718 66.302054 
L 226.093832 66.948496 
L 228.557903 67.835044 
L 230.713467 68.857596 
L 233.615648 70.529948 
L 235.912744 72.153608 
L 237.940824 73.852825 
L 239.579032 75.59234 
L 241.462667 78.1865 
L 242.304696 79.944485 
L 242.855183 81.348186 
L 243.263079 84.283197 
L 243.114392 85.344369 
L 242.783092 87.30552 
L 242.648982 88.705863 
L 243.1075 93.173864 
L 243.682371 95.752913 
L 244.146985 97.478995 
L 244.406193 98.808818 
L 244.347089 99.310859 
L 243.721597 100.533221 
L 242.847232 101.881513 
L 237.718721 108.045373 
L 236.196601 110.202304 
L 232.736247 115.993243 
L 231.775215 118.148327 
L 227.756689 127.106324 
L 226.883915 128.791437 
L 224.096496 134.113077 
L 222.763879 137.156556 
L 222.041116 138.85359 
L 219.118263 147.925429 
L 218.518744 148.996674 
L 216.948651 150.934487 
L 215.391545 152.579974 
L 214.309655 153.950598 
L 213.322383 155.126953 
L 211.325047 158.728387 
L 210.118853 162.424016 
L 209.647613 164.247484 
L 209.228056 165.439959 
L 208.538954 168.687445 
L 208.722361 169.849528 
L 209.591955 174.53883 
L 209.837382 178.419996 
L 210.016283 179.326022 
L 210.691338 180.672802 
L 211.202069 181.523754 
L 211.805563 181.962159 
L 212.431056 182.344819 
L 212.885599 182.897736 
L 213.140036 183.43806 
L 213.168396 184.028756 
L 212.834181 184.924036 
L 212.170523 185.905955 
L 210.560939 188.008988 
L 210.331415 188.675914 
L 210.292454 189.413361 
L 210.723673 190.757623 
L 211.069019 191.675905 
L 211.431328 192.144869 
L 211.862282 192.222106 
L 212.259576 191.997447 
L 212.568877 191.477607 
L 212.872877 190.548243 
L 213.318408 190.327613 
L 213.787262 190.256589 
L 214.125983 190.453544 
L 215.525655 191.903587 
L 216.339061 192.815321 
L 218.614688 195.791638 
L 220.024167 197.620479 
L 221.380373 199.296357 
L 222.386728 200.391781 
L 223.773413 202.47349 
L 224.065222 203.388247 
L 224.247304 205.21692 
L 224.155335 206.325273 
L 223.513145 208.627611 
L 222.681186 210.689172 
L 221.781643 212.962126 
L 220.386476 217.644041 
L 219.768669 218.738122 
L 218.649673 219.997087 
L 217.593227 221.063967 
L 216.171026 222.041521 
L 214.062373 223.315766 
L 211.350756 224.598406 
L 208.938633 225.417959 
L 204.417063 226.865652 
L 202.088427 227.56532 
L 198.730644 228.034619 
L 194.920704 228.215623 
L 192.739696 228.158367 
L 189.620713 228.317542 
L 185.962376 228.606678 
L 177.28976 229.554008 
L 174.69423 229.75684 
L 164.048661 230.747154 
L 155.158978 231.259606 
L 153.151835 231.321899 
L 149.896887 231.288318 
L 145.377702 231.295202 
L 139.438702 231.342048 
L 136.757034 231.460255 
L 134.769239 231.515328 
L 132.145085 231.683403 
L 130.355009 231.808493 
L 126.440379 231.764166 
L 124.945557 231.638907 
L 120.969968 231.105299 
L 116.162155 230.467421 
L 113.7715 230.359625 
L 111.794307 230.226979 
L 108.563478 230.226475 
L 103.498577 229.876054 
L 100.381714 229.289219 
L 97.900947 228.715985 
L 96.697668 228.434909 
L 96.456482 228.501568 
L 95.982062 228.818073 
L 95.401626 228.740835 
L 94.709873 228.325434 
L 93.212401 226.925595 
L 91.574458 225.510812 
L 90.278416 224.372739 
L 87.94342 222.802306 
L 84.397194 220.254656 
L 78.50272 215.747029 
L 77.707602 215.281927 
L 76.798517 214.294803 
L 76.088212 213.248743 
L 75.53958 211.890209 
L 75.147322 210.585909 
L 74.826625 208.778896 
L 74.879633 205.753718 
L 75.142021 204.448746 
L 75.581987 203.418638 
L 77.029101 200.630545 
L 77.49292 199.457548 
L 78.277436 196.809993 
L 78.23503 196.678857 
L 78.531874 194.733153 
L 78.820767 191.050117 
L 78.818117 189.270472 
L 78.685597 186.989458 
L 78.547777 182.204449 
L 78.966539 179.896233 
L 81.174316 175.06186 
L 82.34579 172.612603 
L 83.15416 171.343731 
L 86.430045 166.66719 
L 88.192557 163.603394 
L 89.504501 159.930767 
L 89.862304 158.39845 
L 90.289018 156.854043 
L 90.683926 154.720618 
L 91.137143 152.486114 
L 91.868652 149.362711 
L 92.221154 148.093336 
L 92.647868 146.595439 
L 95.303561 139.429175 
L 96.549246 134.922891 
L 97.071374 132.731539 
L 97.487485 130.844266 
L 97.882394 128.688678 
L 98.39922 126.419921 
L 99.435524 123.687405 
L 100.373763 121.337046 
L 101.304051 118.495894 
L 101.966649 116.076021 
L 102.676955 113.681837 
L 103.59134 111.04167 
L 104.903285 108.505437 
L 106.649894 106.206793 
L 108.340845 104.166725 
L 109.308238 102.927572 
L 110.644036 100.926123 
L 111.823461 99.220189 
L 114.569268 94.377756 
L 118.584614 84.985048 
L 121.197901 79.041146 
L 122.125539 77.597147 
L 123.217501 75.043284 
L 124.934956 72.183831 
L 125.5737 71.379557 
L 126.668313 70.351967 
L 128.711766 68.892857 
L 131.004356 67.588221 
L 132.763422 66.825924 
L 136.069257 65.721097 
L 138.961631 64.972232 
L 142.070542 64.320754 
L 153.001028 62.485532 
L 156.709723 61.58891 
L 162.273428 60.640236 
L 173.534153 60.242297 
L 176.406914 60.285952 
L 184.075826 61.08351 
L 188.055921 61.869314 
L 190.416626 62.072481 
L 192.86453 62.035542 
L 200.940012 61.526784 
L 204.511417 61.698049 
L 206.844293 62.178263 
L 208.921936 62.707169 
L 210.854602 63.48122 
L 213.309396 64.698544 
L 215.73 66.048515 
L 218.011194 67.574788 
L 226.098338 74.18528 
L 231.338165 77.625691 
L 238.137218 81.406953 
L 241.068023 83.591421 
L 241.627521 84.261369 
L 242.16131 85.257057 
L 242.49738 86.18894 
L 242.654283 87.384437 
L 242.702255 88.776384 
L 242.520703 90.176727 
L 241.75474 92.651674 
L 241.291186 93.585236 
L 238.837982 97.3262 
L 237.130864 99.529138 
L 234.893137 104.002176 
L 234.366769 105.839077 
L 233.545677 107.486243 
L 233.342657 108.418126 
L 232.814434 111.030252 
L 232.521566 112.285692 
L 232.182315 114.820749 
L 231.809935 116.505359 
L 231.408931 118.805011 
L 230.279068 122.184471 
L 229.393572 123.960086 
L 228.859518 125.049634 
L 227.981972 126.575907 
L 225.632399 130.566548 
L 224.433891 132.810791 
L 223.203844 135.079884 
L 222.360489 136.691958 
L 221.568286 138.228305 
L 220.874678 139.992167 
L 220.388066 141.574353 
L 219.757273 143.578657 
L 219.027885 145.572886 
L 218.500456 147.197553 
L 217.21316 149.803467 
L 214.88161 152.224347 
L 208.127083 157.542964 
L 202.785481 160.784238 
L 198.963879 162.49185 
L 194.940052 163.662665 
L 191.955975 164.09385 
L 180.374817 165.211941 
L 177.273592 165.696856 
L 172.534955 166.514898 
L 159.381054 168.227044 
L 156.38611 168.43273 
L 148.044263 168.127979 
L 135.095502 168.372619 
L 125.09928 168.579984 
L 119.658023 168.990013 
L 115.632076 169.575504 
L 111.359642 170.819022 
L 109.25258 171.71598 
L 104.972195 173.665882 
L 102.987051 174.662409 
L 99.896693 176.160306 
L 94.065828 179.093471 
L 91.489646 180.722671 
L 90.286367 181.625338 
L 89.517753 182.608936 
L 89.210308 183.236908 
L 88.836602 184.519212 
L 87.996428 189.165866 
L 86.952173 191.633593 
L 86.263071 192.964422 
L 81.87667 200.426706 
L 80.302337 203.135715 
L 78.985091 205.382476 
L 78.110462 207.030314 
L 77.378953 208.047661 
L 76.435413 209.43793 
L 75.998098 210.549305 
L 75.987497 211.404287 
L 76.634193 213.005278 
L 77.161621 213.785038 
L 77.893129 214.480508 
L 79.507219 215.801431 
L 82.828161 217.682659 
L 87.702234 219.748417 
L 88.961171 220.176244 
L 97.537843 222.188271 
L 109.231377 225.914628 
L 114.028588 227.588827 
L 117.460847 228.682404 
L 123.047876 230.364495 
L 125.253003 231.432886 
L 126.776979 231.877671 
L 130.612098 232.412118 
L 133.121225 232.578178 
L 135.914209 232.87403 
L 148.795384 233.325028 
L 155.548851 233.978185 
L 165.191246 234.315174 
L 169.793918 234.326424 
L 172.764744 234.259933 
L 179.412725 234.254056 
L 194.223386 234.737292 
L 200.949023 235.301459 
L 204.33278 235.822306 
L 207.177712 236.592831 
L 210.464995 237.702191 
L 214.459137 238.837745 
L 216.931159 239.544297 
L 222.517922 240.774215 
L 226.261337 241.191295 
L 227.630265 241.384556 
L 229.437038 241.829509 
L 232.523156 242.155584 
L 233.960994 242.158774 
L 237.885431 242.574176 
L 238.933662 242.990081 
L 239.167956 243.295839 
L 239.220434 244.014313 
L 239.107527 244.36188 
L 238.713679 245.067424 
L 238.736207 245.217365 
L 238.977658 245.24188 
L 240.502429 244.502754 
L 242.502151 243.553408 
L 244.484115 242.831913 
L 244.730601 242.886315 
L 244.58483 242.965063 
L 244.083905 243.058587 
L 243.829998 243.158995 
L 243.723982 243.20752 
L 243.639434 243.242781 
L 243.775665 243.245132 
L 243.772484 243.276698 
L 245.211382 243.178305 
L 247.216935 243.304235 
L 247.836862 243.483895 
L 249.614215 244.411245 
L 250.416489 244.876011 
L 253.292696 246.763283 
L 254.22749 248.165977 
L 254.286063 248.294258 
L 254.538911 248.455281 
L 255.271479 248.749118 
L 255.759682 248.856746 
L 258.199899 249.550537 
L 260.196175 250.214776 
L 262.480548 250.932914 
L 265.817923 251.836588 
L 271.276143 252.674779 
L 273.256517 252.843526 
L 274.384524 253.029399 
L 275.376566 252.942591 
L 278.522582 253.041488 
L 280.541387 253.28361 
L 283.721328 253.892943 
L 286.02664 254.405563 
L 291.021836 255.302857 
L 292.373537 255.733202 
L 297.178699 257.551801 
L 299.61282 258.192702 
L 306.328121 260.046225 
L 307.752177 260.404035 
L 310.785817 261.18277 
L 316.251458 262.095377 
L 317.975008 262.374405 
L 319.087908 262.750398 
L 320.006269 263.214493 
L 321.726375 263.723838 
L 324.143798 264.385408 
L 325.458393 264.747986 
L 328.125749 265.57256 
L 332.085436 266.964877 
L 335.719125 268.65412 
L 336.906236 269.230377 
L 340.032639 270.621216 
L 352.64639 276.226242 
L 359.299407 279.841534 
L 362.602061 282.207913 
L 362.911362 282.452721 
L 363.065085 282.796359 
L 362.96702 283.166358 
L 362.542162 283.649124 
L 360.137461 285.980544 
L 359.89442 286.480839 
L 359.889119 286.978314 
L 360.10009 287.180356 
L 360.540321 287.232978 
L 361.498173 287.287447 
L 362.173228 287.494275 
L 366.669885 290.479658 
L 368.027681 291.445206 
L 369.418872 292.408538 
L 371.405342 293.860597 
L 372.835308 294.62328 
L 374.872082 295.482963 
L 374.911441 295.488 
L 374.44301 295.318414 
L 373.568036 294.931893 
L 370.681652 294.199483 
L 366.488333 293.369184 
L 363.522808 292.795194 
L 361.076495 292.363254 
L 362.55992 292.729593 
L 363.631739 293.226782 
L 364.521476 293.937078 
L 364.895181 294.608336 
L 364.875569 294.926352 
L 364.436663 294.874133 
L 364.037779 294.346049 
L 363.40354 293.177333 
L 363.466355 293.151862 
L 363.849601 293.206079 
L 363.893068 293.478625 
L 363.893068 293.478625 
" style="fill:none;stroke:#008000;stroke-linecap:square;stroke-width:1.5;"/>
   </g>
   <g id="patch_3">
    <path d="M 57.6 307.584 
L 57.6 41.472 
" style="fill:none;stroke:#000000;stroke-linecap:square;stroke-linejoin:miter;stroke-width:0.8;"/>
   </g>
   <g id="patch_4">
    <path d="M 414.72 307.584 
L 414.72 41.472 
" style="fill:none;stroke:#000000;stroke-linecap:square;stroke-linejoin:miter;stroke-width:0.8;"/>
   </g>
   <g id="patch_5">
    <path d="M 57.6 307.584 
L 414.72 307.584 
" style="fill:none;stroke:#000000;stroke-linecap:square;stroke-linejoin:miter;stroke-width:0.8;"/>
   </g>
   <g id="patch_6">
    <path d="M 57.6 41.472 
L 414.72 41.472 
" style="fill:none;stroke:#000000;stroke-linecap:square;stroke-linejoin:miter;stroke-width:0.8;"/>
   </g>
   <g id="text_18">
    <!-- long corridor -->
    <defs>
     <path d="M 9.421875 75.984375 
L 18.40625 75.984375 
L 18.40625 0 
L 9.421875 0 
z
" id="DejaVuSans-6c"/>
     <path d="M 30.609375 48.390625 
Q 23.390625 48.390625 19.1875 42.75 
Q 14.984375 37.109375 14.984375 27.296875 
Q 14.984375 17.484375 19.15625 11.84375 
Q 23.34375 6.203125 30.609375 6.203125 
Q 37.796875 6.203125 41.984375 11.859375 
Q 46.1875 17.53125 46.1875 27.296875 
Q 46.1875 37.015625 41.984375 42.703125 
Q 37.796875 48.390625 30.609375 48.390625 
z
M 30.609375 56 
Q 42.328125 56 49.015625 48.375 
Q 55.71875 40.765625 55.71875 27.296875 
Q 55.71875 13.875 49.015625 6.21875 
Q 42.328125 -1.421875 30.609375 -1.421875 
Q 18.84375 -1.421875 12.171875 6.21875 
Q 5.515625 13.875 5.515625 27.296875 
Q 5.515625 40.765625 12.171875 48.375 
Q 18.84375 56 30.609375 56 
z
" id="DejaVuSans-6f"/>
     <path d="M 54.890625 33.015625 
L 54.890625 0 
L 45.90625 0 
L 45.90625 32.71875 
Q 45.90625 40.484375 42.875 44.328125 
Q 39.84375 48.1875 33.796875 48.1875 
Q 26.515625 48.1875 22.3125 43.546875 
Q 18.109375 38.921875 18.109375 30.90625 
L 18.109375 0 
L 9.078125 0 
L 9.078125 54.6875 
L 18.109375 54.6875 
L 18.109375 46.1875 
Q 21.34375 51.125 25.703125 53.5625 
Q 30.078125 56 35.796875 56 
Q 45.21875 56 50.046875 50.171875 
Q 54.890625 44.34375 54.890625 33.015625 
z
" id="DejaVuSans-6e"/>
     <path d="M 45.40625 27.984375 
Q 45.40625 37.75 41.375 43.109375 
Q 37.359375 48.484375 30.078125 48.484375 
Q 22.859375 48.484375 18.828125 43.109375 
Q 14.796875 37.75 14.796875 27.984375 
Q 14.796875 18.265625 18.828125 12.890625 
Q 22.859375 7.515625 30.078125 7.515625 
Q 37.359375 7.515625 41.375 12.890625 
Q 45.40625 18.265625 45.40625 27.984375 
z
M 54.390625 6.78125 
Q 54.390625 -7.171875 48.1875 -13.984375 
Q 42 -20.796875 29.203125 -20.796875 
Q 24.46875 -20.796875 20.265625 -20.09375 
Q 16.0625 -19.390625 12.109375 -17.921875 
L 12.109375 -9.1875 
Q 16.0625 -11.328125 19.921875 -12.34375 
Q 23.78125 -13.375 27.78125 -13.375 
Q 36.625 -13.375 41.015625 -8.765625 
Q 45.40625 -4.15625 45.40625 5.171875 
L 45.40625 9.625 
Q 42.625 4.78125 38.28125 2.390625 
Q 33.9375 0 27.875 0 
Q 17.828125 0 11.671875 7.65625 
Q 5.515625 15.328125 5.515625 27.984375 
Q 5.515625 40.671875 11.671875 48.328125 
Q 17.828125 56 27.875 56 
Q 33.9375 56 38.28125 53.609375 
Q 42.625 51.21875 45.40625 46.390625 
L 45.40625 54.6875 
L 54.390625 54.6875 
z
" id="DejaVuSans-67"/>
     <path id="DejaVuSans-20"/>
     <path d="M 48.78125 52.59375 
L 48.78125 44.1875 
Q 44.96875 46.296875 41.140625 47.34375 
Q 37.3125 48.390625 33.40625 48.390625 
Q 24.65625 48.390625 19.8125 42.84375 
Q 14.984375 37.3125 14.984375 27.296875 
Q 14.984375 17.28125 19.8125 11.734375 
Q 24.65625 6.203125 33.40625 6.203125 
Q 37.3125 6.203125 41.140625 7.25 
Q 44.96875 8.296875 48.78125 10.40625 
L 48.78125 2.09375 
Q 45.015625 0.34375 40.984375 -0.53125 
Q 36.96875 -1.421875 32.421875 -1.421875 
Q 20.0625 -1.421875 12.78125 6.34375 
Q 5.515625 14.109375 5.515625 27.296875 
Q 5.515625 40.671875 12.859375 48.328125 
Q 20.21875 56 33.015625 56 
Q 37.15625 56 41.109375 55.140625 
Q 45.0625 54.296875 48.78125 52.59375 
z
" id="DejaVuSans-63"/>
     <path d="M 41.109375 46.296875 
Q 39.59375 47.171875 37.8125 47.578125 
Q 36.03125 48 33.890625 48 
Q 26.265625 48 22.1875 43.046875 
Q 18.109375 38.09375 18.109375 28.8125 
L 18.109375 0 
L 9.078125 0 
L 9.078125 54.6875 
L 18.109375 54.6875 
L 18.109375 46.1875 
Q 20.953125 51.171875 25.484375 53.578125 
Q 30.03125 56 36.53125 56 
Q 37.453125 56 38.578125 55.875 
Q 39.703125 55.765625 41.0625 55.515625 
z
" id="DejaVuSans-72"/>
     <path d="M 9.421875 54.6875 
L 18.40625 54.6875 
L 18.40625 0 
L 9.421875 0 
z
M 9.421875 75.984375 
L 18.40625 75.984375 
L 18.40625 64.59375 
L 9.421875 64.59375 
z
" id="DejaVuSans-69"/>
     <path d="M 45.40625 46.390625 
L 45.40625 75.984375 
L 54.390625 75.984375 
L 54.390625 0 
L 45.40625 0 
L 45.40625 8.203125 
Q 42.578125 3.328125 38.25 0.953125 
Q 33.9375 -1.421875 27.875 -1.421875 
Q 17.96875 -1.421875 11.734375 6.484375 
Q 5.515625 14.40625 5.515625 27.296875 
Q 5.515625 40.1875 11.734375 48.09375 
Q 17.96875 56 27.875 56 
Q 33.9375 56 38.25 53.625 
Q 42.578125 51.265625 45.40625 46.390625 
z
M 14.796875 27.296875 
Q 14.796875 17.390625 18.875 11.75 
Q 22.953125 6.109375 30.078125 6.109375 
Q 37.203125 6.109375 41.296875 11.75 
Q 45.40625 17.390625 45.40625 27.296875 
Q 45.40625 37.203125 41.296875 42.84375 
Q 37.203125 48.484375 30.078125 48.484375 
Q 22.953125 48.484375 18.875 42.84375 
Q 14.796875 37.203125 14.796875 27.296875 
z
" id="DejaVuSans-64"/>
    </defs>
    <g transform="translate(213.967723 35.472)scale(0.0694 -0.0694)">
     <use xlink:href="#DejaVuSans-6c"/>
     <use x="27.783203" xlink:href="#DejaVuSans-6f"/>
     <use x="88.964844" xlink:href="#DejaVuSans-6e"/>
     <use x="152.34375" xlink:href="#DejaVuSans-67"/>
     <use x="215.820312" xlink:href="#DejaVuSans-20"/>
     <use x="247.607422" xlink:href="#DejaVuSans-63"/>
     <use x="302.587891" xlink:href="#DejaVuSans-6f"/>
     <use x="363.769531" xlink:href="#DejaVuSans-72"/>
     <use x="404.867188" xlink:href="#DejaVuSans-72"/>
     <use x="445.980469" xlink:href="#DejaVuSans-69"/>
     <use x="473.763672" xlink:href="#DejaVuSans-64"/>
     <use x="537.240234" xlink:href="#DejaVuSans-6f"/>
     <use x="598.421875" xlink:href="#DejaVuSans-72"/>
    </g>
   </g>
   <g id="legend_1">
    <g id="patch_7">
     <path d="M 356.509692 71.599903 
L 410.667 71.599903 
Q 411.825 71.599903 411.825 70.441903 
L 411.825 45.525 
Q 411.825 44.367 410.667 44.367 
L 356.509692 44.367 
Q 355.351692 44.367 355.351692 45.525 
L 355.351692 70.441903 
Q 355.351692 71.599903 356.509692 71.599903 
z
" style="fill:#ffffff;opacity:0.8;stroke:#cccccc;stroke-linejoin:miter;"/>
    </g>
    <g id="line2d_34">
     <path d="M 357.667692 49.055995 
L 369.247692 49.055995 
" style="fill:none;stroke:#0000ff;stroke-linecap:square;stroke-width:1.5;"/>
    </g>
    <g id="line2d_35"/>
    <g id="text_19">
     <!-- wheel-odom -->
     <defs>
      <path d="M 4.203125 54.6875 
L 13.1875 54.6875 
L 24.421875 12.015625 
L 35.59375 54.6875 
L 46.1875 54.6875 
L 57.421875 12.015625 
L 68.609375 54.6875 
L 77.59375 54.6875 
L 63.28125 0 
L 52.6875 0 
L 40.921875 44.828125 
L 29.109375 0 
L 18.5 0 
z
" id="DejaVuSans-77"/>
      <path d="M 54.890625 33.015625 
L 54.890625 0 
L 45.90625 0 
L 45.90625 32.71875 
Q 45.90625 40.484375 42.875 44.328125 
Q 39.84375 48.1875 33.796875 48.1875 
Q 26.515625 48.1875 22.3125 43.546875 
Q 18.109375 38.921875 18.109375 30.90625 
L 18.109375 0 
L 9.078125 0 
L 9.078125 75.984375 
L 18.109375 75.984375 
L 18.109375 46.1875 
Q 21.34375 51.125 25.703125 53.5625 
Q 30.078125 56 35.796875 56 
Q 45.21875 56 50.046875 50.171875 
Q 54.890625 44.34375 54.890625 33.015625 
z
" id="DejaVuSans-68"/>
      <path d="M 56.203125 29.59375 
L 56.203125 25.203125 
L 14.890625 25.203125 
Q 15.484375 15.921875 20.484375 11.0625 
Q 25.484375 6.203125 34.421875 6.203125 
Q 39.59375 6.203125 44.453125 7.46875 
Q 49.3125 8.734375 54.109375 11.28125 
L 54.109375 2.78125 
Q 49.265625 0.734375 44.1875 -0.34375 
Q 39.109375 -1.421875 33.890625 -1.421875 
Q 20.796875 -1.421875 13.15625 6.1875 
Q 5.515625 13.8125 5.515625 26.8125 
Q 5.515625 40.234375 12.765625 48.109375 
Q 20.015625 56 32.328125 56 
Q 43.359375 56 49.78125 48.890625 
Q 56.203125 41.796875 56.203125 29.59375 
z
M 47.21875 32.234375 
Q 47.125 39.59375 43.09375 43.984375 
Q 39.0625 48.390625 32.421875 48.390625 
Q 24.90625 48.390625 20.390625 44.140625 
Q 15.875 39.890625 15.1875 32.171875 
z
" id="DejaVuSans-65"/>
      <path d="M 4.890625 31.390625 
L 31.203125 31.390625 
L 31.203125 23.390625 
L 4.890625 23.390625 
z
" id="DejaVuSans-2d"/>
     </defs>
     <g transform="translate(373.879692 51.082495)scale(0.0579 -0.0579)">
      <use xlink:href="#DejaVuSans-77"/>
      <use x="81.787109" xlink:href="#DejaVuSans-68"/>
      <use x="145.166016" xlink:href="#DejaVuSans-65"/>
      <use x="206.689453" xlink:href="#DejaVuSans-65"/>
      <use x="268.212891" xlink:href="#DejaVuSans-6c"/>
      <use x="295.996094" xlink:href="#DejaVuSans-2d"/>
      <use x="332.095703" xlink:href="#DejaVuSans-6f"/>
      <use x="393.277344" xlink:href="#DejaVuSans-64"/>
      <use x="456.753906" xlink:href="#DejaVuSans-6f"/>
      <use x="517.935547" xlink:href="#DejaVuSans-6d"/>
     </g>
    </g>
    <g id="line2d_36">
     <path d="M 357.667692 57.55463 
L 369.247692 57.55463 
" style="fill:none;stroke:#ff0000;stroke-linecap:square;stroke-width:1.5;"/>
    </g>
    <g id="line2d_37"/>
    <g id="text_20">
     <!-- EKF -->
     <defs>
      <path d="M 9.8125 72.90625 
L 55.90625 72.90625 
L 55.90625 64.59375 
L 19.671875 64.59375 
L 19.671875 43.015625 
L 54.390625 43.015625 
L 54.390625 34.71875 
L 19.671875 34.71875 
L 19.671875 8.296875 
L 56.78125 8.296875 
L 56.78125 0 
L 9.8125 0 
z
" id="DejaVuSans-45"/>
      <path d="M 9.8125 72.90625 
L 19.671875 72.90625 
L 19.671875 42.09375 
L 52.390625 72.90625 
L 65.09375 72.90625 
L 28.90625 38.921875 
L 67.671875 0 
L 54.6875 0 
L 19.671875 35.109375 
L 19.671875 0 
L 9.8125 0 
z
" id="DejaVuSans-4b"/>
      <path d="M 9.8125 72.90625 
L 51.703125 72.90625 
L 51.703125 64.59375 
L 19.671875 64.59375 
L 19.671875 43.109375 
L 48.578125 43.109375 
L 48.578125 34.8125 
L 19.671875 34.8125 
L 19.671875 0 
L 9.8125 0 
z
" id="DejaVuSans-46"/>
     </defs>
     <g transform="translate(373.879692 59.58113)scale(0.0579 -0.0579)">
      <use xlink:href="#DejaVuSans-45"/>
      <use x="63.183594" xlink:href="#DejaVuSans-4b"/>
      <use x="128.759766" xlink:href="#DejaVuSans-46"/>
     </g>
    </g>
    <g id="line2d_38">
     <path d="M 357.667692 66.053264 
L 369.247692 66.053264 
" style="fill:none;stroke:#008000;stroke-linecap:square;stroke-width:1.5;"/>
    </g>
    <g id="line2d_39"/>
    <g id="text_21">
     <!-- isam2 -->
     <defs>
      <path d="M 44.28125 53.078125 
L 44.28125 44.578125 
Q 40.484375 46.53125 36.375 47.5 
Q 32.28125 48.484375 27.875 48.484375 
Q 21.1875 48.484375 17.84375 46.4375 
Q 14.5 44.390625 14.5 40.28125 
Q 14.5 37.15625 16.890625 35.375 
Q 19.28125 33.59375 26.515625 31.984375 
L 29.59375 31.296875 
Q 39.15625 29.25 43.1875 25.515625 
Q 47.21875 21.78125 47.21875 15.09375 
Q 47.21875 7.46875 41.1875 3.015625 
Q 35.15625 -1.421875 24.609375 -1.421875 
Q 20.21875 -1.421875 15.453125 -0.5625 
Q 10.6875 0.296875 5.421875 2 
L 5.421875 11.28125 
Q 10.40625 8.6875 15.234375 7.390625 
Q 20.0625 6.109375 24.8125 6.109375 
Q 31.15625 6.109375 34.5625 8.28125 
Q 37.984375 10.453125 37.984375 14.40625 
Q 37.984375 18.0625 35.515625 20.015625 
Q 33.0625 21.96875 24.703125 23.78125 
L 21.578125 24.515625 
Q 13.234375 26.265625 9.515625 29.90625 
Q 5.8125 33.546875 5.8125 39.890625 
Q 5.8125 47.609375 11.28125 51.796875 
Q 16.75 56 26.8125 56 
Q 31.78125 56 36.171875 55.265625 
Q 40.578125 54.546875 44.28125 53.078125 
z
" id="DejaVuSans-73"/>
      <path d="M 34.28125 27.484375 
Q 23.390625 27.484375 19.1875 25 
Q 14.984375 22.515625 14.984375 16.5 
Q 14.984375 11.71875 18.140625 8.90625 
Q 21.296875 6.109375 26.703125 6.109375 
Q 34.1875 6.109375 38.703125 11.40625 
Q 43.21875 16.703125 43.21875 25.484375 
L 43.21875 27.484375 
z
M 52.203125 31.203125 
L 52.203125 0 
L 43.21875 0 
L 43.21875 8.296875 
Q 40.140625 3.328125 35.546875 0.953125 
Q 30.953125 -1.421875 24.3125 -1.421875 
Q 15.921875 -1.421875 10.953125 3.296875 
Q 6 8.015625 6 15.921875 
Q 6 25.140625 12.171875 29.828125 
Q 18.359375 34.515625 30.609375 34.515625 
L 43.21875 34.515625 
L 43.21875 35.40625 
Q 43.21875 41.609375 39.140625 45 
Q 35.0625 48.390625 27.6875 48.390625 
Q 23 48.390625 18.546875 47.265625 
Q 14.109375 46.140625 10.015625 43.890625 
L 10.015625 52.203125 
Q 14.9375 54.109375 19.578125 55.046875 
Q 24.21875 56 28.609375 56 
Q 40.484375 56 46.34375 49.84375 
Q 52.203125 43.703125 52.203125 31.203125 
z
" id="DejaVuSans-61"/>
     </defs>
     <g transform="translate(373.879692 68.079764)scale(0.0579 -0.0579)">
      <use xlink:href="#DejaVuSans-69"/>
      <use x="27.783203" xlink:href="#DejaVuSans-73"/>
      <use x="79.882812" xlink:href="#DejaVuSans-61"/>
      <use x="141.162109" xlink:href="#DejaVuSans-6d"/>
      <use x="238.574219" xlink:href="#DejaVuSans-32"/>
     </g>
    </g>
   </g>
  </g>
 </g>
 <defs>
  <clipPath id="pf340f8b5b5">
   <rect height="266.112" width="357.12" x="57.6" y="41.472"/>
  </clipPath>
 </defs>
</svg>
